<svg xmlns="http://www.w3.org/2000/svg" xmlns:xlink="http://www.w3.org/1999/xlink" version="1.1" width="500" height="250" viewBox="0 0 500 250" xml:space="preserve">
<desc>Created with Fabric.js 3.5.0</desc>
<defs>
</defs>
<rect x="0" y="0" width="100%" height="100%" fill="#ffffff"/>
<g transform="matrix(2.2565 0 0 2.2565 102.4583 93.0109)" id="478790">
<path style="stroke: none; stroke-width: 0; stroke-dasharray: none; stroke-linecap: butt; stroke-dashoffset: 0; stroke-linejoin: miter; stroke-miterlimit: 4; is-custom-font: none; font-file-url: none; fill: rgb(0,0,0); fill-rule: evenodd; opacity: 1;" vector-effect="non-scaling-stroke" transform=" translate(-13, -14.3)" d="M 24.7 23.6 H 6.3 c -0.5 0 -1.3 -0.9 -1.3 -1.4 V 1.4 C 5 0.9 5.9 0 6.3 0 h 13.7 L 26 6.7 v 15.6 C 26 22.8 25.1 23.6 24.7 23.6 z M 7.4 3.8 v 16 c 0 0.4 0.7 1.1 1 1.1 h 14.1 c 0.4 0 1 -0.7 1 -1 V 9.6 h -6.4 V 2.7 H 8.5 C 8.1 2.7 7.4 3.4 7.4 3.8 z M 19 2.7 L 19 2.7 l 0 5.1 h 4.6 L 19 2.7 z M 2.4 8.8 v 16 c 0 0.4 0.7 1.1 1 1.1 h 14.1 c 0.3 0 0.9 -0.5 1 -0.9 H 21 v 2.3 c 0 0.5 -0.9 1.3 -1.3 1.3 H 1.3 c -0.5 0 -1.3 -0.9 -1.3 -1.4 V 6.4 C 0 5.9 0.9 5 1.3 5 H 4 v 2.7 H 3.5 C 3.1 7.7 2.4 8.4 2.4 8.8 z" stroke-linecap="round"/>
</g>
<g transform="matrix(0.551 0 0 0.551 246.2394 90.0148)" id="518541">
<g style="" vector-effect="non-scaling-stroke">
		<g transform="matrix(1 0 0 1 -0.3 -27.5)" id="602763">
<circle style="stroke: none; stroke-width: 1; stroke-dasharray: none; stroke-linecap: butt; stroke-dashoffset: 0; stroke-linejoin: miter; stroke-miterlimit: 4; is-custom-font: none; font-file-url: none; fill: rgb(3,108,112); fill-rule: nonzero; opacity: 1;" cx="0" cy="0" r="36.7"/>
</g>
		<g transform="matrix(1 0 0 1 30.3 6)" id="149147">
<circle style="stroke: none; stroke-width: 1; stroke-dasharray: none; stroke-linecap: butt; stroke-dashoffset: 0; stroke-linejoin: miter; stroke-miterlimit: 4; is-custom-font: none; font-file-url: none; fill: rgb(26,155,161); fill-rule: nonzero; opacity: 1;" cx="0" cy="0" r="33.9"/>
</g>
		<g transform="matrix(1 0 0 1 4.5 38.1)" id="137819">
<circle style="stroke: none; stroke-width: 1; stroke-dasharray: none; stroke-linecap: butt; stroke-dashoffset: 0; stroke-linejoin: miter; stroke-miterlimit: 4; is-custom-font: none; font-file-url: none; fill: rgb(55,198,208); fill-rule: nonzero; opacity: 1;" cx="0" cy="0" r="26"/>
</g>
		<g transform="matrix(1 0 0 1 -31 0.7)" id="929150">
<path style="stroke: none; stroke-width: 1; stroke-dasharray: none; stroke-linecap: butt; stroke-dashoffset: 0; stroke-linejoin: miter; stroke-miterlimit: 4; is-custom-font: none; font-file-url: none; fill: rgb(4,135,139); fill-rule: nonzero; opacity: 1;" transform=" translate(-33, -64.7)" d="M 59.5 97.2 h -53 c -3.5 0 -6.4 -2.9 -6.4 -6.4 V 38.6 c 0 -3.5 2.9 -6.4 6.4 -6.4 h 53 c 3.5 0 6.4 2.9 6.4 6.4 v 52.2 C 65.9 94.3 63.1 97.2 59.5 97.2 z" stroke-linecap="round"/>
</g>
		<g transform="matrix(1 0 0 1 -31.35 1.05)" id="566810">
<path style="stroke: none; stroke-width: 1; stroke-dasharray: none; stroke-linecap: butt; stroke-dashoffset: 0; stroke-linejoin: miter; stroke-miterlimit: 4; is-custom-font: none; font-file-url: none; fill: rgb(255,255,255); fill-rule: nonzero; opacity: 1;" transform=" translate(-32.65, -65.05)" d="M 22.3 75.9 c 2.1 1.2 5.4 2.3 8.8 2.3 c 4.2 0 6.6 -2 6.6 -4.9 c 0 -2.7 -1.8 -4.3 -6.4 -6 c -6 -2.1 -9.9 -5.3 -9.9 -10.4 c 0 -5.9 5 -10.3 12.9 -10.3 c 3.9 0 6.8 0.9 8.7 1.8 l -1.6 5.3 C 40.1 53 37.6 52 34.2 52 c -4.2 0 -6 2.2 -6 4.3 c 0 2.8 2.1 4 7 5.9 c 6.3 2.4 9.3 5.5 9.3 10.6 c 0 5.8 -4.4 10.7 -13.8 10.7 c -3.9 0 -7.9 -1.1 -9.9 -2.2 L 22.3 75.9 z" stroke-linecap="round"/>
</g>
		<g transform="matrix(1 0 0 1 -7 6.45)" id="924517">
<path style="stroke: none; stroke-width: 1; stroke-dasharray: none; stroke-linecap: butt; stroke-dashoffset: 0; stroke-linejoin: miter; stroke-miterlimit: 4; is-custom-font: none; font-file-url: none; fill: rgb(0,0,0); fill-rule: nonzero; opacity: 0.2;" transform=" translate(-57, -70.45)" d="M 65.9 38 c 0 0.2 0 0.4 0 0.6 v 52.2 c 0 3.5 -2.9 6.4 -6.4 6.4 H 42.8 l -0.2 5.7 h 22.4 c 3.5 0 6.4 -2.9 6.4 -6.4 V 44.3 C 71.3 41.1 69 38.5 65.9 38 z" stroke-linecap="round"/>
</g>
</g>
</g>
<g transform="matrix(1 0 0 1 249.7662 -34.33)" style="" id="931158">
		
<path xml:space="preserve" font-family="Abel" font-size="40" style="stroke: none; stroke-width: 0; stroke-dasharray: none; stroke-linecap: butt; stroke-dashoffset: 0; stroke-linejoin: miter; stroke-miterlimit: 4; is-custom-font: none; font-file-url: none; fill: rgb(0,0,0); fill-rule: nonzero; opacity: 1; white-space: pre;" d="M-48.79 5.69L-48.79 5.69Q-48.79 7.12-49.33 8.37Q-49.86 9.62-50.80 10.55Q-51.74 11.49-53.00 12.03Q-54.26 12.57-55.68 12.57L-55.68 12.57L-64.55 12.57L-64.55-15.44L-55.68-15.44Q-54.26-15.44-53.00-14.91Q-51.74-14.37-50.80-13.43Q-49.86-12.49-49.33-11.23Q-48.79-9.97-48.79-8.55L-48.79-8.55L-48.79-8.27Q-48.79-7.28-49.05-6.37Q-49.32-5.46-49.80-4.68Q-50.29-3.90-50.96-3.26Q-51.62-2.63-52.44-2.20L-52.44-2.20Q-51.62-1.77-50.96-1.14Q-50.29-0.50-49.80 0.29Q-49.32 1.08-49.05 1.99Q-48.79 2.90-48.79 3.89L-48.79 3.89L-48.79 5.69ZM-51.31 5.69L-51.31 3.48Q-51.31 2.55-51.66 1.74Q-52.01 0.92-52.63 0.32Q-53.24-0.29-54.05-0.64Q-54.86-0.99-55.80-0.99L-55.80-0.99L-62.03-0.99L-62.03 10.16L-55.80 10.16Q-54.86 10.16-54.05 9.81Q-53.24 9.46-52.63 8.85Q-52.01 8.25-51.66 7.44Q-51.31 6.63-51.31 5.69L-51.31 5.69ZM-51.31-7.88L-51.31-8.55Q-51.31-9.49-51.66-10.30Q-52.01-11.11-52.63-11.72Q-53.24-12.34-54.05-12.69Q-54.86-13.04-55.80-13.04L-55.80-13.04L-62.03-13.04L-62.03-3.39L-55.80-3.39Q-54.86-3.39-54.05-3.74Q-53.24-4.09-52.63-4.71Q-52.01-5.33-51.66-6.14Q-51.31-6.95-51.31-7.88L-51.31-7.88ZM-31.15 12.57L-44.39 12.57L-44.39-15.44L-41.87-15.44L-41.87 10.16L-31.15 10.16L-31.15 12.57ZM-11.80 6.08L-11.80 6.08Q-11.80 7.51-12.33 8.76Q-12.87 10.01-13.81 10.94Q-14.75 11.88-16.00 12.42Q-17.25 12.96-18.67 12.96L-18.67 12.96L-20.66 12.96Q-22.09 12.96-23.35 12.42Q-24.61 11.88-25.55 10.94Q-26.48 10.01-27.02 8.76Q-27.56 7.51-27.56 6.08L-27.56 6.08L-27.56-8.96Q-27.56-10.38-27.02-11.63Q-26.48-12.88-25.55-13.82Q-24.61-14.76-23.35-15.30Q-22.09-15.83-20.66-15.83L-20.66-15.83L-18.67-15.83Q-17.25-15.83-16.00-15.30Q-14.75-14.76-13.81-13.82Q-12.87-12.88-12.33-11.63Q-11.80-10.38-11.80-8.96L-11.80-8.96L-11.80 6.08ZM-14.32 6.08L-14.32-8.96Q-14.32-9.90-14.67-10.71Q-15.02-11.52-15.62-12.12Q-16.23-12.73-17.04-13.08Q-17.85-13.43-18.79-13.43L-18.79-13.43L-20.55-13.43Q-21.48-13.43-22.29-13.08Q-23.11-12.73-23.72-12.12Q-24.34-11.52-24.69-10.71Q-25.04-9.90-25.04-8.96L-25.04-8.96L-25.04 6.08Q-25.04 7.02-24.69 7.83Q-24.34 8.64-23.72 9.26Q-23.11 9.87-22.29 10.22Q-21.48 10.57-20.55 10.57L-20.55 10.57L-18.79 10.57Q-17.85 10.57-17.04 10.22Q-16.23 9.87-15.62 9.26Q-15.02 8.64-14.67 7.83Q-14.32 7.02-14.32 6.08L-14.32 6.08ZM9.57-2.16L9.57 12.57L8.77 12.57L7.30 10.32Q6.39 11.53 5.08 12.24Q3.77 12.96 2.17 12.96L2.17 12.96L0.70 12.96Q-0.72 12.96-1.98 12.42Q-3.24 11.88-4.18 10.94Q-5.12 10.01-5.65 8.76Q-6.19 7.51-6.19 6.08L-6.19 6.08L-6.19-8.96Q-6.19-10.38-5.65-11.63Q-5.12-12.88-4.18-13.82Q-3.24-14.76-1.98-15.30Q-0.72-15.83 0.70-15.83L0.70-15.83L2.70-15.83Q4.12-15.83 5.37-15.30Q6.62-14.76 7.56-13.82Q8.50-12.88 9.03-11.63Q9.57-10.38 9.57-8.96L9.57-8.96L9.57-7.83L7.05-7.43L7.05-8.96Q7.05-9.90 6.70-10.71Q6.35-11.52 5.74-12.12Q5.14-12.73 4.33-13.08Q3.52-13.43 2.58-13.43L2.58-13.43L0.82-13.43Q-0.12-13.43-0.93-13.08Q-1.74-12.73-2.35-12.12Q-2.97-11.52-3.32-10.71Q-3.67-9.90-3.67-8.96L-3.67-8.96L-3.67 6.08Q-3.67 7.02-3.32 7.83Q-2.97 8.64-2.35 9.26Q-1.74 9.87-0.93 10.22Q-0.12 10.57 0.82 10.57L0.82 10.57L2.58 10.57Q3.52 10.57 4.33 10.22Q5.14 9.87 5.74 9.26Q6.35 8.64 6.70 7.83Q7.05 7.02 7.05 6.08L7.05 6.08L7.05 0.24L2.58 0.24L2.58-2.16L9.57-2.16ZM24.79-6.32L24.79-8.31L29.38-8.31L29.98-15.44L32.34-15.44L31.74-8.31L38.22-8.31L38.83-15.44L41.19-15.44L40.59-8.31L44.79-8.31L44.79-6.32L40.39-6.32L39.59 3.44L43.98 3.44L43.98 5.44L39.38 5.44L38.79 12.57L36.43 12.57L37.03 5.44L30.55 5.44L29.94 12.57L27.58 12.57L28.18 5.44L23.98 5.44L23.98 3.44L28.38 3.44L29.18-6.32L24.79-6.32ZM31.54-6.32L30.74 3.44L37.23 3.44L38.03-6.32L31.54-6.32ZM64.94 6.08L64.94 6.08Q64.94 7.51 64.40 8.76Q63.87 10.01 62.93 10.94Q61.99 11.88 60.74 12.42Q59.49 12.96 58.07 12.96L58.07 12.96L56.88 12.96Q55.45 12.96 54.19 12.42Q52.93 11.88 51.99 10.94Q51.05 10.01 50.52 8.76Q49.98 7.51 49.98 6.08L49.98 6.08L49.98 3.76Q49.98 1.98 50.81 0.51Q51.64-0.97 52.99-1.91L52.99-1.91Q51.64-2.84 50.81-4.33Q49.98-5.81 49.98-7.59L49.98-7.59L49.98-8.96Q49.98-10.38 50.52-11.63Q51.05-12.88 51.99-13.82Q52.93-14.76 54.19-15.30Q55.45-15.83 56.88-15.83L56.88-15.83L58.07-15.83Q59.49-15.83 60.74-15.30Q61.99-14.76 62.93-13.82Q63.87-12.88 64.40-11.63Q64.94-10.38 64.94-8.96L64.94-8.96L64.94-7.59Q64.94-5.81 64.12-4.33Q63.30-2.84 61.95-1.91L61.95-1.91Q63.30-0.97 64.12 0.51Q64.94 1.98 64.94 3.76L64.94 3.76L64.94 6.08ZM62.42-7.59L62.42-8.96Q62.42-9.90 62.07-10.71Q61.72-11.52 61.11-12.12Q60.51-12.73 59.70-13.08Q58.89-13.43 57.95-13.43L57.95-13.43L56.99-13.43Q56.05-13.43 55.24-13.08Q54.43-12.73 53.82-12.12Q53.20-11.52 52.85-10.71Q52.50-9.90 52.50-8.96L52.50-8.96L52.50-7.59Q52.50-6.65 52.85-5.84Q53.20-5.03 53.82-4.43Q54.43-3.82 55.24-3.47Q56.05-3.12 56.99-3.12L56.99-3.12L57.95-3.12Q58.89-3.12 59.70-3.47Q60.51-3.82 61.11-4.43Q61.72-5.03 62.07-5.84Q62.42-6.65 62.42-7.59L62.42-7.59ZM62.42 6.08L62.42 3.76Q62.42 2.82 62.07 2.01Q61.72 1.20 61.11 0.59Q60.51-0.01 59.70-0.36Q58.89-0.72 57.95-0.72L57.95-0.72L56.99-0.72Q56.05-0.72 55.24-0.36Q54.43-0.01 53.82 0.59Q53.20 1.20 52.85 2.01Q52.50 2.82 52.50 3.76L52.50 3.76L52.50 6.08Q52.50 7.02 52.85 7.83Q53.20 8.64 53.82 9.26Q54.43 9.87 55.24 10.22Q56.05 10.57 56.99 10.57L56.99 10.57L57.95 10.57Q58.89 10.57 59.70 10.22Q60.51 9.87 61.11 9.26Q61.72 8.64 62.07 7.83Q62.42 7.02 62.42 6.08L62.42 6.08Z"/></g>
<g transform="matrix(1 0 0 1 100.0794 36.8278)" style="" id="491867">
		
<path xml:space="preserve" font-family="Alegreya Sans" font-size="12" font-style="normal" font-weight="bold" style="stroke: none; stroke-width: 0; stroke-dasharray: none; stroke-linecap: butt; stroke-dashoffset: 0; stroke-linejoin: miter; stroke-miterlimit: 4; is-custom-font: none; font-file-url: none; fill: rgb(0,0,0); fill-rule: nonzero; opacity: 1; white-space: pre;" d="M-17.52-10.40L-17.58-6.48L-17.59-5.46Q-17.58-4.08-18.40-3.32Q-19.21-2.56-20.74-2.56L-20.74-2.56Q-22.20-2.56-22.97-3.30Q-23.74-4.03-23.70-5.40L-23.70-5.40L-23.69-6.51L-23.72-10.40L-22.09-10.40L-22.18-5.61Q-22.19-4.74-21.80-4.32Q-21.42-3.90-20.64-3.90L-20.64-3.90Q-19.08-3.90-19.09-5.53L-19.09-5.53L-19.18-10.40L-17.52-10.40ZM-12.92-2.67L-12.83-6.15Q-12.82-6.57-13.01-6.81Q-13.21-7.04-13.58-7.04L-13.58-7.04Q-14.12-7.04-14.74-6.52L-14.74-6.52L-14.74-5.13L-14.66-2.67L-16.26-2.67L-16.18-4.98L-16.24-8.14L-14.72-8.28L-14.72-7.46L-14.64-7.46Q-13.98-8.06-13.20-8.32L-13.20-8.32Q-12.29-8.32-11.81-7.91Q-11.33-7.50-11.35-6.72L-11.35-6.72L-11.39-5.12L-11.32-2.67L-12.92-2.67ZM-7.66-3.85Q-7.27-3.85-6.85-4.05L-6.85-4.05L-6.72-3.93L-6.88-2.98Q-7.49-2.67-8.12-2.60L-8.12-2.60Q-9.74-2.77-9.74-4.18L-9.74-4.18L-9.68-5.18L-9.70-7.24L-10.44-7.24L-10.50-7.33L-10.42-8.20L-9.71-8.20L-9.71-9.13L-8.26-9.60L-8.15-9.50L-8.18-8.20L-6.76-8.20L-6.71-8.12L-6.78-7.24L-8.21-7.24L-8.28-4.56Q-8.28-4.17-8.14-4.01Q-7.99-3.85-7.66-3.85L-7.66-3.85ZM-2.77-8.26Q-2.66-8.26-2.47-8.24L-2.47-8.24L-2.47-6.76L-2.64-6.70Q-2.84-6.79-3.08-6.79L-3.08-6.79Q-3.78-6.79-4.34-5.89L-4.34-5.89L-4.34-5.13L-4.26-2.67L-5.86-2.67L-5.76-4.98L-5.83-8.14L-4.32-8.28L-4.33-7.18L-4.24-7.18Q-3.65-8.26-2.77-8.26L-2.77-8.26ZM3.59-3.81L3.70-3.72L3.55-2.88Q3.11-2.59 2.64-2.58L2.64-2.58Q2.29-2.64 2.06-2.85Q1.84-3.07 1.72-3.48L1.72-3.48L1.61-3.48Q0.92-2.80 0.19-2.60L0.19-2.60Q-0.72-2.60-1.19-3.01Q-1.67-3.43-1.66-4.21L-1.66-4.21L-1.63-5.62L-1.69-8.14L-0.14-8.28L-0.18-4.74Q-0.19-4.32-0.01-4.10Q0.17-3.88 0.53-3.88L0.53-3.88Q1.06-3.88 1.57-4.35L1.57-4.35L1.57-8.14L3.10-8.28L2.99-4.12Q2.99-3.93 3.05-3.85Q3.12-3.76 3.26-3.76L3.26-3.76Q3.40-3.76 3.59-3.81L3.59-3.81ZM6.50-8.35Q7.32-8.35 8.04-8.07L8.04-8.07L7.82-6.90L7.63-6.84Q7.28-7.06 6.94-7.18Q6.59-7.30 6.32-7.30L6.32-7.30Q6.04-7.30 5.87-7.15Q5.70-7.00 5.70-6.79L5.70-6.79Q5.70-6.54 5.92-6.38Q6.14-6.22 6.62-6.03L6.62-6.03Q7.10-5.84 7.42-5.66Q7.73-5.48 7.95-5.16Q8.17-4.84 8.17-4.38L8.17-4.38Q8.17-3.90 7.93-3.48Q7.68-3.07 7.18-2.81Q6.67-2.55 5.94-2.55L5.94-2.55Q5.08-2.55 4.15-2.91L4.15-2.91L4.33-4.16L4.49-4.26Q4.86-3.94 5.32-3.76Q5.77-3.57 6.12-3.57L6.12-3.57Q6.44-3.57 6.62-3.73Q6.80-3.90 6.80-4.12L6.80-4.12Q6.80-4.38 6.58-4.53Q6.36-4.69 5.88-4.88L5.88-4.88Q5.39-5.10 5.08-5.27Q4.76-5.44 4.54-5.77Q4.32-6.09 4.32-6.57L4.32-6.57Q4.32-7.35 4.91-7.85Q5.50-8.35 6.50-8.35L6.50-8.35ZM11.50-3.85Q11.88-3.85 12.30-4.05L12.30-4.05L12.43-3.93L12.28-2.98Q11.66-2.67 11.03-2.60L11.03-2.60Q9.41-2.77 9.41-4.18L9.41-4.18L9.47-5.18L9.46-7.24L8.71-7.24L8.65-7.33L8.74-8.20L9.44-8.20L9.44-9.13L10.90-9.60L11.00-9.50L10.97-8.20L12.40-8.20L12.44-8.12L12.37-7.24L10.94-7.24L10.87-4.56Q10.87-4.17 11.02-4.01Q11.16-3.85 11.50-3.85L11.50-3.85ZM17.71-5.46L17.53-5.26L14.29-5.24Q14.40-3.74 15.82-3.74L15.82-3.74Q16.56-3.74 17.47-4.16L17.47-4.16L17.60-4.08L17.36-2.89Q16.45-2.55 15.65-2.55L15.65-2.55Q14.33-2.55 13.58-3.32Q12.83-4.09 12.83-5.44L12.83-5.44Q12.83-6.79 13.56-7.57Q14.29-8.36 15.54-8.36L15.54-8.36Q16.61-8.36 17.19-7.78Q17.77-7.20 17.77-6.15L17.77-6.15Q17.77-5.88 17.71-5.46L17.71-5.46ZM16.36-6.16L16.38-6.33Q16.38-6.81 16.16-7.06Q15.95-7.30 15.53-7.30L15.53-7.30Q15.06-7.30 14.75-7.00Q14.44-6.69 14.33-6.12L14.33-6.12L16.36-6.16ZM23.63-11.10L23.53-5.13L23.57-4.12Q23.57-3.92 23.62-3.84Q23.68-3.76 23.82-3.76L23.82-3.76Q23.95-3.76 24.14-3.81L24.14-3.81L24.25-3.72L24.12-2.88Q23.71-2.62 23.23-2.58L23.23-2.58Q22.86-2.61 22.61-2.83Q22.36-3.04 22.26-3.42L22.26-3.42L22.16-3.42Q21.58-2.88 20.96-2.59L20.96-2.59Q19.79-2.59 19.14-3.34Q18.49-4.09 18.49-5.42L18.49-5.42Q18.49-6.84 19.24-7.59Q19.98-8.35 21.30-8.35L21.30-8.35Q21.65-8.35 22.07-8.28L22.07-8.28L22.04-10.98L23.63-11.10ZM21.19-7.27Q19.99-7.27 19.99-5.74L19.99-5.74Q19.99-4.80 20.28-4.32Q20.57-3.84 21.12-3.84L21.12-3.84Q21.65-3.84 22.09-4.33L22.09-4.33L22.12-4.99L22.08-7.05Q21.61-7.27 21.19-7.27L21.19-7.27Z"/><path xml:space="preserve" font-family="Alegreya Sans" font-size="12" font-style="normal" font-weight="bold" style="stroke: none; stroke-width: 0; stroke-dasharray: none; stroke-linecap: butt; stroke-dashoffset: 0; stroke-linejoin: miter; stroke-miterlimit: 4; is-custom-font: none; font-file-url: none; fill: rgb(0,0,0); fill-rule: nonzero; opacity: 1; white-space: pre;" d="M-24.32 2.43Q-22.64 2.43-21.74 3.37Q-20.84 4.31-20.84 6.06L-20.84 6.06Q-20.84 8.11-21.85 9.20Q-22.85 10.29-24.73 10.29L-24.73 10.29Q-25.29 10.29-26.08 10.27Q-26.86 10.25-27.43 10.21L-27.43 10.21L-27.34 7.91L-27.43 2.48L-24.32 2.43ZM-24.44 9.03Q-22.53 9.03-22.53 6.43L-22.53 6.43Q-22.53 5.01-22.99 4.37Q-23.45 3.73-24.44 3.73L-24.44 3.73Q-25.07 3.73-25.79 3.79L-25.79 3.79L-25.87 7.76L-25.83 8.95Q-24.99 9.03-24.44 9.03L-24.44 9.03ZM-17.50 4.52Q-16.28 4.52-15.63 5.24Q-14.98 5.96-14.98 7.32L-14.98 7.32Q-14.98 8.78-15.68 9.56Q-16.37 10.33-17.68 10.33L-17.68 10.33Q-18.91 10.33-19.55 9.61Q-20.20 8.89-20.20 7.53L-20.20 7.53Q-20.20 6.07-19.51 5.30Q-18.81 4.52-17.50 4.52L-17.50 4.52ZM-17.61 5.60Q-18.19 5.60-18.44 5.99Q-18.70 6.37-18.70 7.22L-18.70 7.22Q-18.70 8.33-18.44 8.79Q-18.17 9.26-17.57 9.26L-17.57 9.26Q-17.00 9.26-16.74 8.88Q-16.48 8.51-16.48 7.64L-16.48 7.64Q-16.48 6.55-16.75 6.08Q-17.02 5.60-17.61 5.60L-17.61 5.60ZM-11.60 4.52Q-11.20 4.52-10.81 4.60Q-10.42 4.68-10.12 4.82L-10.12 4.82L-10.39 6.09L-10.52 6.15Q-11.13 5.82-11.61 5.82L-11.61 5.82Q-12.16 5.82-12.46 6.21Q-12.76 6.61-12.76 7.34L-12.76 7.34Q-12.76 8.18-12.44 8.63Q-12.11 9.07-11.51 9.07L-11.51 9.07Q-10.97 9.07-10.31 8.77L-10.31 8.77L-10.19 8.87L-10.35 10.10Q-11.07 10.33-11.83 10.33L-11.83 10.33Q-12.98 10.33-13.63 9.58Q-14.27 8.83-14.27 7.49L-14.27 7.49Q-14.27 6.09-13.57 5.31Q-12.86 4.52-11.60 4.52L-11.60 4.52ZM-4.05 9.07L-3.94 9.17L-4.09 10.01Q-4.53 10.29-5.00 10.31L-5.00 10.31Q-5.35 10.25-5.57 10.03Q-5.80 9.81-5.92 9.41L-5.92 9.41L-6.03 9.41Q-6.71 10.08-7.45 10.28L-7.45 10.28Q-8.36 10.28-8.83 9.87Q-9.31 9.45-9.29 8.67L-9.29 8.67L-9.27 7.26L-9.33 4.74L-7.78 4.61L-7.82 8.15Q-7.83 8.57-7.65 8.78Q-7.47 9.00-7.11 9.00L-7.11 9.00Q-6.58 9.00-6.07 8.53L-6.07 8.53L-6.07 4.74L-4.54 4.61L-4.65 8.76Q-4.65 8.95-4.58 9.03Q-4.52 9.12-4.37 9.12L-4.37 9.12Q-4.24 9.12-4.05 9.07L-4.05 9.07ZM5.20 10.21L3.61 10.21L3.70 6.73Q3.70 5.84 2.95 5.84L2.95 5.84Q2.41 5.84 1.82 6.32L1.82 6.32L1.78 7.76L1.85 10.21L0.26 10.21L0.35 6.73Q0.37 6.30 0.17 6.07Q-0.03 5.84-0.40 5.84L-0.40 5.84Q-0.93 5.84-1.57 6.35L-1.57 6.35L-1.57 7.75L-1.49 10.21L-3.08 10.21L-2.99 7.91L-3.05 4.74L-1.55 4.61L-1.55 5.42L-1.47 5.42Q-0.81 4.82-0.02 4.56L-0.02 4.56Q1.33 4.56 1.70 5.46L1.70 5.46L1.77 5.46Q2.45 4.82 3.33 4.56L3.33 4.56Q4.24 4.56 4.72 4.97Q5.19 5.39 5.17 6.17L5.17 6.17L5.13 7.76L5.20 10.21ZM11.11 7.43L10.93 7.62L7.69 7.64Q7.79 9.14 9.21 9.14L9.21 9.14Q9.95 9.14 10.87 8.72L10.87 8.72L11.00 8.81L10.76 9.99Q9.85 10.33 9.04 10.33L9.04 10.33Q7.72 10.33 6.97 9.56Q6.22 8.79 6.22 7.44L6.22 7.44Q6.22 6.09 6.95 5.31Q7.69 4.52 8.93 4.52L8.93 4.52Q10.00 4.52 10.58 5.10Q11.17 5.69 11.17 6.73L11.17 6.73Q11.17 7.01 11.11 7.43L11.11 7.43ZM9.75 6.72L9.77 6.55Q9.77 6.07 9.56 5.82Q9.34 5.58 8.92 5.58L8.92 5.58Q8.45 5.58 8.14 5.88Q7.83 6.19 7.72 6.77L7.72 6.77L9.75 6.72ZM15.61 10.21L15.70 6.73Q15.71 6.31 15.52 6.08Q15.32 5.84 14.95 5.84L14.95 5.84Q14.41 5.84 13.79 6.36L13.79 6.36L13.79 7.75L13.87 10.21L12.27 10.21L12.35 7.91L12.29 4.74L13.81 4.61L13.81 5.42L13.89 5.42Q14.55 4.82 15.33 4.56L15.33 4.56Q16.24 4.56 16.72 4.97Q17.20 5.39 17.18 6.17L17.18 6.17L17.14 7.76L17.21 10.21L15.61 10.21ZM20.87 9.03Q21.26 9.03 21.68 8.83L21.68 8.83L21.81 8.95L21.65 9.90Q21.04 10.21 20.41 10.28L20.41 10.28Q18.79 10.11 18.79 8.70L18.79 8.70L18.85 7.70L18.83 5.64L18.09 5.64L18.03 5.55L18.11 4.68L18.82 4.68L18.82 3.75L20.27 3.29L20.38 3.38L20.35 4.68L21.77 4.68L21.82 4.76L21.75 5.64L20.32 5.64L20.25 8.33Q20.25 8.71 20.39 8.87Q20.54 9.03 20.87 9.03L20.87 9.03ZM24.55 4.53Q25.36 4.53 26.08 4.81L26.08 4.81L25.87 5.99L25.67 6.05Q25.33 5.82 24.98 5.70Q24.63 5.58 24.37 5.58L24.37 5.58Q24.08 5.58 23.91 5.73Q23.74 5.88 23.74 6.09L23.74 6.09Q23.74 6.35 23.96 6.50Q24.19 6.66 24.67 6.85L24.67 6.85Q25.15 7.04 25.46 7.22Q25.77 7.40 25.99 7.72Q26.21 8.04 26.21 8.51L26.21 8.51Q26.21 8.99 25.97 9.40Q25.72 9.81 25.22 10.07Q24.71 10.33 23.98 10.33L23.98 10.33Q23.12 10.33 22.19 9.97L22.19 9.97L22.37 8.72L22.53 8.63Q22.90 8.94 23.36 9.12Q23.81 9.31 24.16 9.31L24.16 9.31Q24.49 9.31 24.67 9.15Q24.85 8.99 24.85 8.76L24.85 8.76Q24.85 8.51 24.62 8.35Q24.40 8.19 23.92 8.00L23.92 8.00Q23.43 7.79 23.12 7.61Q22.81 7.44 22.58 7.11Q22.36 6.79 22.36 6.31L22.36 6.31Q22.36 5.53 22.95 5.03Q23.54 4.53 24.55 4.53L24.55 4.53Z"/></g>
<g transform="matrix(1 0 0 1 245.6486 35.7261)" style="" id="254727">
		
<path xml:space="preserve" font-family="Alegreya Sans" font-size="13" font-weight="bold" style="stroke: none; stroke-width: 0; stroke-dasharray: none; stroke-linecap: butt; stroke-dashoffset: 0; stroke-linejoin: miter; stroke-miterlimit: 4; is-custom-font: none; font-file-url: none; fill: rgb(0,0,0); fill-rule: nonzero; opacity: 1; white-space: pre;" d="M-15.74-11.27L-14.99-2.89L-16.55-2.89L-16.68-5.43L-16.98-8.65L-17.11-8.65L-18.98-3.78L-20.34-3.78L-22.05-8.65L-22.16-8.65L-22.49-5.60L-22.67-2.89L-24.15-2.89L-23.31-11.27L-21.28-11.27L-20.94-10.03L-19.62-6.07L-19.50-6.07L-18.11-10.03L-17.73-11.27L-15.74-11.27ZM-13.55-2.89L-13.45-5.39L-13.52-8.82L-11.82-8.96L-11.89-5.56L-11.82-2.89L-13.55-2.89ZM-12.64-11.90Q-12.23-11.90-12.01-11.67Q-11.78-11.43-11.78-11.02L-11.78-11.02Q-11.78-10.58-12.02-10.32Q-12.27-10.06-12.70-10.06L-12.70-10.06Q-13.13-10.06-13.36-10.29Q-13.58-10.52-13.58-10.95L-13.58-10.95Q-13.58-11.38-13.33-11.64Q-13.08-11.90-12.64-11.90L-12.64-11.90ZM-7.70-9.06Q-7.27-9.06-6.84-8.97Q-6.42-8.89-6.10-8.73L-6.10-8.73L-6.38-7.35L-6.53-7.29Q-7.19-7.65-7.71-7.65L-7.71-7.65Q-8.31-7.65-8.63-7.22Q-8.96-6.79-8.96-6.00L-8.96-6.00Q-8.96-5.09-8.61-4.61Q-8.25-4.13-7.60-4.13L-7.60-4.13Q-7.02-4.13-6.30-4.45L-6.30-4.45L-6.17-4.35L-6.34-3.01Q-7.12-2.76-7.94-2.76L-7.94-2.76Q-9.19-2.76-9.89-3.58Q-10.59-4.39-10.59-5.84L-10.59-5.84Q-10.59-7.35-9.83-8.20Q-9.06-9.06-7.70-9.06L-7.70-9.06ZM-1.90-8.95Q-1.78-8.95-1.57-8.93L-1.57-8.93L-1.57-7.33L-1.75-7.26Q-1.98-7.35-2.24-7.35L-2.24-7.35Q-2.99-7.35-3.60-6.38L-3.60-6.38L-3.60-5.56L-3.51-2.89L-5.24-2.89L-5.13-5.39L-5.21-8.82L-3.57-8.96L-3.59-7.78L-3.48-7.78Q-2.85-8.95-1.90-8.95L-1.90-8.95ZM1.79-9.06Q3.12-9.06 3.82-8.28Q4.52-7.50 4.52-6.03L4.52-6.03Q4.52-4.44 3.77-3.60Q3.02-2.76 1.60-2.76L1.60-2.76Q0.27-2.76-0.43-3.54Q-1.13-4.32-1.13-5.79L-1.13-5.79Q-1.13-7.38-0.38-8.22Q0.38-9.06 1.79-9.06L1.79-9.06ZM1.68-7.89Q1.05-7.89 0.77-7.47Q0.49-7.05 0.49-6.13L0.49-6.13Q0.49-4.93 0.78-4.43Q1.07-3.92 1.72-3.92L1.72-3.92Q2.34-3.92 2.62-4.33Q2.90-4.74 2.90-5.68L2.90-5.68Q2.90-6.86 2.61-7.37Q2.31-7.89 1.68-7.89L1.68-7.89ZM7.74-9.04Q8.62-9.04 9.40-8.74L9.40-8.74L9.17-7.47L8.96-7.40Q8.58-7.65 8.20-7.78Q7.83-7.91 7.54-7.91L7.54-7.91Q7.23-7.91 7.05-7.75Q6.86-7.59 6.86-7.35L6.86-7.35Q6.86-7.08 7.10-6.91Q7.35-6.74 7.87-6.53L7.87-6.53Q8.39-6.33 8.72-6.13Q9.06-5.94 9.30-5.59Q9.54-5.25 9.54-4.74L9.54-4.74Q9.54-4.22 9.28-3.77Q9.01-3.32 8.46-3.04Q7.92-2.76 7.12-2.76L7.12-2.76Q6.19-2.76 5.19-3.15L5.19-3.15L5.38-4.51L5.55-4.61Q5.95-4.27 6.45-4.07Q6.94-3.87 7.32-3.87L7.32-3.87Q7.67-3.87 7.87-4.04Q8.06-4.22 8.06-4.47L8.06-4.47Q8.06-4.74 7.82-4.91Q7.58-5.08 7.06-5.29L7.06-5.29Q6.53-5.52 6.19-5.71Q5.85-5.90 5.61-6.25Q5.37-6.60 5.37-7.12L5.37-7.12Q5.37-7.96 6.01-8.50Q6.64-9.04 7.74-9.04L7.74-9.04ZM13.21-9.06Q14.53-9.06 15.24-8.28Q15.94-7.50 15.94-6.03L15.94-6.03Q15.94-4.44 15.18-3.60Q14.43-2.76 13.01-2.76L13.01-2.76Q11.69-2.76 10.99-3.54Q10.28-4.32 10.28-5.79L10.28-5.79Q10.28-7.38 11.04-8.22Q11.79-9.06 13.21-9.06L13.21-9.06ZM13.09-7.89Q12.47-7.89 12.19-7.47Q11.91-7.05 11.91-6.13L11.91-6.13Q11.91-4.93 12.19-4.43Q12.48-3.92 13.13-3.92L13.13-3.92Q13.75-3.92 14.03-4.33Q14.31-4.74 14.31-5.68L14.31-5.68Q14.31-6.86 14.02-7.37Q13.73-7.89 13.09-7.89L13.09-7.89ZM20.01-12.05Q20.54-12.05 21.14-11.93L21.14-11.93L21.02-10.64L20.90-10.56Q20.29-10.82 19.84-10.82L19.84-10.82Q19.03-10.82 19.02-9.90L19.02-9.90L19.01-8.89L20.48-8.89L20.53-8.80L20.45-7.85L18.98-7.85L18.94-5.56L19.03-2.89L17.30-2.89L17.41-5.40L17.38-7.85L16.47-7.85L16.41-7.94L16.50-8.89L17.37-8.89L17.36-9.60Q17.36-10.77 18.05-11.41Q18.75-12.05 20.01-12.05L20.01-12.05ZM23.58-4.17Q24.00-4.17 24.45-4.39L24.45-4.39L24.60-4.26L24.43-3.23Q23.76-2.89 23.08-2.82L23.08-2.82Q21.32-3.00 21.32-4.53L21.32-4.53L21.39-5.61L21.37-7.85L20.57-7.85L20.50-7.94L20.59-8.89L21.36-8.89L21.36-9.89L22.93-10.39L23.05-10.29L23.01-8.89L24.56-8.89L24.61-8.80L24.53-7.85L22.98-7.85L22.91-4.93Q22.91-4.52 23.06-4.34Q23.22-4.17 23.58-4.17L23.58-4.17Z"/><path xml:space="preserve" font-family="Alegreya Sans" font-size="13" font-weight="bold" style="stroke: none; stroke-width: 0; stroke-dasharray: none; stroke-linecap: butt; stroke-dashoffset: 0; stroke-linejoin: miter; stroke-miterlimit: 4; is-custom-font: none; font-file-url: none; fill: rgb(0,0,0); fill-rule: nonzero; opacity: 1; white-space: pre;" d="M-25.14 2.59Q-24.08 2.59-23.02 3.01L-23.02 3.01L-23.31 4.54L-23.57 4.64Q-24.01 4.33-24.49 4.15Q-24.96 3.96-25.35 3.96L-25.35 3.96Q-25.87 3.96-26.18 4.24Q-26.49 4.52-26.49 4.89L-26.49 4.89Q-26.49 5.26-26.15 5.52Q-25.80 5.78-25.06 6.13L-25.06 6.13Q-24.35 6.46-23.90 6.74Q-23.45 7.02-23.13 7.47Q-22.81 7.93-22.81 8.59L-22.81 8.59Q-22.81 9.31-23.20 9.90Q-23.59 10.49-24.31 10.83Q-25.02 11.18-25.96 11.18L-25.96 11.18Q-27.20 11.18-28.44 10.65L-28.44 10.65L-28.20 9.01L-28.00 8.90Q-27.48 9.36-26.86 9.60Q-26.25 9.84-25.77 9.84L-25.77 9.84Q-25.19 9.84-24.88 9.56Q-24.56 9.28-24.56 8.89L-24.56 8.89Q-24.56 8.47-24.90 8.21Q-25.25 7.95-26.01 7.59L-26.01 7.59Q-26.71 7.28-27.16 7.01Q-27.60 6.73-27.91 6.28Q-28.22 5.82-28.22 5.17L-28.22 5.17Q-28.22 4.44-27.83 3.85Q-27.44 3.26-26.74 2.92Q-26.04 2.59-25.14 2.59L-25.14 2.59ZM-17.98 11.06L-17.89 7.29Q-17.87 6.82-18.08 6.58Q-18.29 6.33-18.69 6.33L-18.69 6.33Q-19.28 6.33-19.94 6.89L-19.94 6.89L-19.97 8.40L-19.88 11.06L-21.61 11.06L-21.51 8.55L-21.59 2.07L-19.86 1.94L-19.93 5.87L-19.85 5.87Q-19.14 5.22-18.28 4.94L-18.28 4.94Q-17.29 4.94-16.78 5.39Q-16.26 5.84-16.28 6.68L-16.28 6.68L-16.31 8.41L-16.25 11.06L-17.98 11.06ZM-12.35 4.90Q-11.35 4.90-10.78 5.35Q-10.22 5.80-10.22 6.60L-10.22 6.60Q-10.22 6.84-10.30 8.08L-10.30 8.08Q-10.31 8.45-10.33 8.83Q-10.36 9.22-10.36 9.49L-10.36 9.49Q-10.36 9.71-10.30 9.79Q-10.23 9.88-10.06 9.88L-10.06 9.88Q-9.93 9.88-9.72 9.83L-9.72 9.83L-9.59 9.93L-9.75 10.84Q-10.17 11.11-10.70 11.17L-10.70 11.17Q-11.09 11.13-11.35 10.89Q-11.61 10.65-11.70 10.22L-11.70 10.22L-11.79 10.22Q-12.44 10.91-13.13 11.18L-13.13 11.18Q-14.07 11.17-14.60 10.68Q-15.13 10.20-15.13 9.37L-15.13 9.37Q-15.13 8.72-14.80 8.35Q-14.47 7.98-13.79 7.85L-13.79 7.85L-11.80 7.47L-11.80 6.94Q-11.80 6.10-12.64 6.10L-12.64 6.10Q-13.04 6.10-13.49 6.28Q-13.94 6.46-14.49 6.85L-14.49 6.85L-14.62 6.77L-14.82 5.63Q-14.26 5.28-13.62 5.09Q-12.99 4.90-12.35 4.90L-12.35 4.90ZM-11.82 8.34L-13.19 8.64Q-13.40 8.70-13.50 8.82Q-13.60 8.94-13.60 9.19L-13.60 9.19Q-13.60 9.53-13.42 9.72Q-13.23 9.90-12.91 9.90L-12.91 9.90Q-12.40 9.90-11.84 9.31L-11.84 9.31L-11.82 8.34ZM-5.21 5.00Q-5.10 5.00-4.89 5.03L-4.89 5.03L-4.89 6.63L-5.07 6.69Q-5.29 6.60-5.55 6.60L-5.55 6.60Q-6.30 6.60-6.92 7.58L-6.92 7.58L-6.92 8.40L-6.82 11.06L-8.55 11.06L-8.45 8.57L-8.53 5.13L-6.89 4.99L-6.90 6.17L-6.80 6.17Q-6.16 5.00-5.21 5.00L-5.21 5.00ZM0.85 8.05L0.65 8.25L-2.86 8.28Q-2.74 9.90-1.21 9.90L-1.21 9.90Q-0.40 9.90 0.59 9.45L0.59 9.45L0.73 9.54L0.47 10.83Q-0.52 11.19-1.39 11.19L-1.39 11.19Q-2.82 11.19-3.63 10.36Q-4.45 9.53-4.45 8.06L-4.45 8.06Q-4.45 6.60-3.65 5.75Q-2.86 4.90-1.51 4.90L-1.51 4.90Q-0.35 4.90 0.28 5.53Q0.91 6.16 0.91 7.29L0.91 7.29Q0.91 7.59 0.85 8.05L0.85 8.05ZM-0.62 7.28L-0.60 7.10Q-0.60 6.58-0.83 6.31Q-1.07 6.04-1.52 6.04L-1.52 6.04Q-2.03 6.04-2.37 6.38Q-2.70 6.71-2.82 7.33L-2.82 7.33L-0.62 7.28ZM5.20 2.68Q6.51 2.68 7.22 3.34Q7.93 4.00 7.93 5.24L7.93 5.24Q7.93 6.19 7.51 6.90Q7.10 7.60 6.32 7.99Q5.55 8.38 4.51 8.38L4.51 8.38L3.68 8.38L3.68 8.41L3.76 11.06L1.99 11.06L2.08 8.57L1.99 2.69L5.20 2.68ZM4.90 7.10Q6.10 6.76 6.10 5.39L6.10 5.39Q6.10 4.69 5.74 4.35Q5.38 4.00 4.64 3.98L4.64 3.98L3.76 4.03L3.71 7.04L4.90 7.10ZM11.06 4.90Q12.39 4.90 13.09 5.68Q13.79 6.46 13.79 7.93L13.79 7.93Q13.79 9.51 13.04 10.35Q12.29 11.19 10.87 11.19L10.87 11.19Q9.54 11.19 8.84 10.41Q8.14 9.63 8.14 8.16L8.14 8.16Q8.14 6.58 8.89 5.74Q9.65 4.90 11.06 4.90L11.06 4.90ZM10.95 6.07Q10.32 6.07 10.04 6.49Q9.76 6.90 9.76 7.82L9.76 7.82Q9.76 9.02 10.05 9.53Q10.34 10.03 10.99 10.03L10.99 10.03Q11.61 10.03 11.89 9.63Q12.17 9.22 12.17 8.28L12.17 8.28Q12.17 7.10 11.88 6.58Q11.58 6.07 10.95 6.07L10.95 6.07ZM15.00 11.06L15.09 8.57L15.03 5.13L16.73 4.99L16.65 8.40L16.73 11.06L15.00 11.06ZM15.91 2.05Q16.32 2.05 16.54 2.29Q16.77 2.52 16.77 2.94L16.77 2.94Q16.77 3.38 16.52 3.64Q16.28 3.90 15.85 3.90L15.85 3.90Q15.42 3.90 15.19 3.66Q14.96 3.43 14.96 3.00L14.96 3.00Q14.96 2.57 15.22 2.31Q15.47 2.05 15.91 2.05L15.91 2.05ZM21.98 11.06L22.09 7.29Q22.10 6.84 21.89 6.58Q21.67 6.33 21.27 6.33L21.27 6.33Q20.68 6.33 20.02 6.89L20.02 6.89L20.02 8.40L20.10 11.06L18.37 11.06L18.46 8.57L18.40 5.13L20.03 4.99L20.03 5.87L20.12 5.87Q20.84 5.22 21.68 4.94L21.68 4.94Q22.67 4.94 23.19 5.39Q23.71 5.84 23.69 6.68L23.69 6.68L23.65 8.41L23.73 11.06L21.98 11.06ZM27.69 9.79Q28.11 9.79 28.56 9.57L28.56 9.57L28.70 9.70L28.54 10.72Q27.87 11.06 27.18 11.14L27.18 11.14Q25.43 10.96 25.43 9.42L25.43 9.42L25.49 8.34L25.48 6.11L24.67 6.11L24.61 6.02L24.70 5.07L25.47 5.07L25.47 4.07L27.04 3.56L27.16 3.66L27.12 5.07L28.67 5.07L28.72 5.16L28.64 6.11L27.09 6.11L27.01 9.02Q27.01 9.44 27.17 9.61Q27.33 9.79 27.69 9.79L27.69 9.79Z"/></g>
<g transform="matrix(1 0 0 1 169.5055 109.8321)" style="" id="749127">
		
<path xml:space="preserve" font-family="Alegreya Sans" font-size="12" font-style="normal" font-weight="bold" style="stroke: none; stroke-width: 0; stroke-dasharray: none; stroke-linecap: butt; stroke-dashoffset: 0; stroke-linejoin: miter; stroke-miterlimit: 4; is-custom-font: none; font-file-url: none; fill: rgb(0,0,0); fill-rule: nonzero; opacity: 1; white-space: pre;" d="M-13.91-3.96L-13.97-0.03L-13.98 0.99Q-13.97 2.37-14.78 3.12Q-15.60 3.88-17.12 3.88L-17.12 3.88Q-18.59 3.88-19.36 3.15Q-20.12 2.41-20.09 1.05L-20.09 1.05L-20.08-0.07L-20.11-3.96L-18.48-3.96L-18.56 0.83Q-18.58 1.71-18.19 2.13Q-17.81 2.55-17.03 2.55L-17.03 2.55Q-15.47 2.55-15.48 0.91L-15.48 0.91L-15.56-3.96L-13.91-3.96ZM-9.29-3.97Q-8.08-3.97-7.42-3.36Q-6.77-2.75-6.77-1.61L-6.77-1.61Q-6.77-0.73-7.15-0.08Q-7.54 0.58-8.25 0.94Q-8.96 1.30-9.92 1.30L-9.92 1.30L-10.69 1.30L-10.69 1.32L-10.62 3.77L-12.25 3.77L-12.17 1.47L-12.25-3.96L-9.29-3.97ZM-9.56 0.11Q-8.46-0.20-8.46-1.46L-8.46-1.46Q-8.46-2.11-8.79-2.43Q-9.12-2.75-9.80-2.77L-9.80-2.77L-10.62-2.72L-10.67 0.06L-9.56 0.11ZM-1.48 2.43L-1.38 2.56L-1.49 3.77L-5.66 3.77L-5.58 1.47L-5.66-3.96L-4.01-3.96L-4.10 1.32L-4.07 2.43L-1.48 2.43ZM2.27-4.07Q3.90-4.07 4.78-3.08Q5.66-2.09 5.66-0.26L5.66-0.26Q5.66 1.73 4.70 2.81Q3.74 3.89 1.99 3.89L1.99 3.89Q0.37 3.89-0.51 2.88Q-1.39 1.86-1.39 0.00L-1.39 0.00Q-1.39-1.95-0.44-3.01Q0.52-4.07 2.27-4.07L2.27-4.07ZM2.12-2.76Q1.16-2.76 0.73-2.16Q0.30-1.56 0.30-0.20L0.30-0.20Q0.30 1.35 0.73 2.01Q1.15 2.67 2.14 2.67L2.14 2.67Q3.10 2.67 3.53 2.06Q3.96 1.45 3.96 0.07L3.96 0.07Q3.96-1.45 3.53-2.10Q3.11-2.76 2.12-2.76L2.12-2.76ZM10.43-3.96L12.79 3.77L11.14 3.77L10.94 2.76L10.74 2.04L9.23 2.01L7.90 2.04L7.69 2.68L7.49 3.77L5.88 3.77L8.50-3.96L10.43-3.96ZM9.35 0.81L10.39 0.78L9.48-2.43L9.37-2.43L8.32 0.78L9.35 0.81ZM17.03-4.01Q18.71-4.01 19.61-3.07Q20.51-2.13 20.51-0.38L20.51-0.38Q20.51 1.67 19.50 2.76Q18.49 3.85 16.62 3.85L16.62 3.85Q16.06 3.85 15.27 3.83Q14.48 3.81 13.92 3.77L13.92 3.77L14.00 1.47L13.92-3.96L17.03-4.01ZM16.91 2.59Q18.82 2.59 18.82-0.01L18.82-0.01Q18.82-1.43 18.35-2.07Q17.89-2.71 16.91-2.71L16.91-2.71Q16.27-2.71 15.55-2.65L15.55-2.65L15.48 1.32L15.52 2.51Q16.36 2.59 16.91 2.59L16.91 2.59Z"/></g>
<g transform="matrix(0.695 0 0 0.695 170.3397 89.515)" id="818588">
<path style="stroke: none; stroke-width: 0; stroke-dasharray: none; stroke-linecap: butt; stroke-dashoffset: 0; stroke-linejoin: miter; stroke-miterlimit: 4; is-custom-font: none; font-file-url: none; fill: rgb(0,0,0); fill-rule: nonzero; opacity: 1;" vector-effect="non-scaling-stroke" transform=" translate(-45.2375, -10.7)" d="M 79.4 0 C 76.8 0 75.6 3.19999 77.5 4.89999 L 79.9 7 H 3.7 C 1.7 7 0 8.60001 0 10.7 C 0 12.7 1.6 14.4 3.7 14.4 H 79.9 L 77.5 16.5 C 75.6 18.2 76.8 21.4 79.4 21.4 L 89.5 12.8 C 90.8 11.7 90.8 9.6 89.5 8.5 L 79.4 0 Z" stroke-linecap="round"/>
</g>
<g transform="matrix(0.5603 0 0 0.5603 396.2035 93.0096)" id="824219">
<g style="" vector-effect="non-scaling-stroke">
		<g transform="matrix(1 0 0 1 -19 -19)" clip-path="url(#CLIPPATH_19)">
<linearGradient id="SVGID_16" gradientUnits="userSpaceOnUse" gradientTransform="matrix(1 0 0 1 0 0)" x1="43" y1="55" x2="29" y2="10">
<stop offset="0%" style="stop-color:rgb(13,54,165);stop-opacity: 1"/>
<stop offset="100%" style="stop-color:rgb(17,82,212);stop-opacity: 1"/>
</linearGradient>
<clipPath id="CLIPPATH_19">
	<rect transform="matrix(1 0 0 1 19 19)" id="clip1" x="-48" y="-48" rx="0" ry="0" width="96" height="96"/>
</clipPath>
<path style="stroke: none; stroke-width: 1; stroke-dasharray: none; stroke-linecap: butt; stroke-dashoffset: 0; stroke-linejoin: miter; stroke-miterlimit: 4; is-custom-font: none; font-file-url: none; fill: url(#SVGID_16); fill-rule: nonzero; opacity: 1;" transform=" translate(-29, -29)" d="M 63 10 L 29 48 L -5 10 H 63 Z" stroke-linecap="round"/>
</g>
		<g transform="matrix(1 0 0 1 -2 0.4)" clip-path="url(#CLIPPATH_20)">
<clipPath id="CLIPPATH_20">
	<rect transform="matrix(1 0 0 1 2 -0.4)" id="clip1" x="-48" y="-48" rx="0" ry="0" width="96" height="96"/>
</clipPath>
<path style="stroke: none; stroke-width: 1; stroke-dasharray: none; stroke-linecap: butt; stroke-dashoffset: 0; stroke-linejoin: miter; stroke-miterlimit: 4; is-custom-font: none; font-file-url: none; fill: rgb(0,0,0); fill-opacity: 0.24; fill-rule: nonzero; opacity: 1;" transform=" translate(-46, -48.4)" d="M 63 10.4 L -5 86.4 H 63 L 97 48.4 L 63 10.4 Z" stroke-linecap="round"/>
</g>
		<g transform="matrix(1 0 0 1 -2 2)" clip-path="url(#CLIPPATH_21)">
<clipPath id="CLIPPATH_21">
	<rect transform="matrix(1 0 0 1 2 -2)" id="clip1" x="-48" y="-48" rx="0" ry="0" width="96" height="96"/>
</clipPath>
<path style="stroke: none; stroke-width: 1; stroke-dasharray: none; stroke-linecap: butt; stroke-dashoffset: 0; stroke-linejoin: miter; stroke-miterlimit: 4; is-custom-font: none; font-file-url: none; fill: rgb(0,0,0); fill-opacity: 0.32; fill-rule: nonzero; opacity: 1;" transform=" translate(-46, -50)" d="M 63 12 L -5 88 H 63 L 97 50 L 63 12 Z" stroke-linecap="round"/>
</g>
		<g transform="matrix(1 0 0 1 -2 0)" clip-path="url(#CLIPPATH_22)">
<linearGradient id="SVGID_17" gradientUnits="userSpaceOnUse" gradientTransform="matrix(1 0 0 1 0 0)" x1="46" y1="10" x2="46" y2="86">
<stop offset="0%" style="stop-color:rgb(132,202,255);stop-opacity: 1"/>
<stop offset="100%" style="stop-color:rgb(97,177,251);stop-opacity: 1"/>
</linearGradient>
<clipPath id="CLIPPATH_22">
	<rect transform="matrix(1 0 0 1 2 0)" id="clip1" x="-48" y="-48" rx="0" ry="0" width="96" height="96"/>
</clipPath>
<path style="stroke: none; stroke-width: 1; stroke-dasharray: none; stroke-linecap: butt; stroke-dashoffset: 0; stroke-linejoin: miter; stroke-miterlimit: 4; is-custom-font: none; font-file-url: none; fill: url(#SVGID_17); fill-rule: nonzero; opacity: 1;" transform=" translate(-46, -48)" d="M -5 86 L 63 10 L 97 48 L 63 86 H -5 Z" stroke-linecap="round"/>
</g>
		<g transform="matrix(1 0 0 1 -10.5 0)" clip-path="url(#CLIPPATH_23)">
<linearGradient id="SVGID_18" gradientUnits="userSpaceOnUse" gradientTransform="matrix(1 0 0 1 0 0)" x1="37.5" y1="10" x2="37.5" y2="86">
<stop offset="0%" style="stop-color:rgb(59,144,245);stop-opacity: 1"/>
<stop offset="100%" style="stop-color:rgb(42,120,238);stop-opacity: 1"/>
</linearGradient>
<clipPath id="CLIPPATH_23">
	<rect transform="matrix(1 0 0 1 10.5 0)" id="clip1" x="-48" y="-48" rx="0" ry="0" width="96" height="96"/>
</clipPath>
<path style="stroke: none; stroke-width: 1; stroke-dasharray: none; stroke-linecap: butt; stroke-dashoffset: 0; stroke-linejoin: miter; stroke-miterlimit: 4; is-custom-font: none; font-file-url: none; fill: url(#SVGID_18); fill-rule: nonzero; opacity: 1;" transform=" translate(-37.5, -48)" d="M -5 86 L 63 10 L 80 29 L 29 86 H -5 Z" stroke-linecap="round"/>
</g>
</g>
</g>
<g transform="matrix(1 0 0 1 398.4273 37.9295)" style="" id="304308">
		
<path xml:space="preserve" font-family="Alegreya Sans" font-size="13" font-weight="bold" style="stroke: none; stroke-width: 0; stroke-dasharray: none; stroke-linecap: butt; stroke-dashoffset: 0; stroke-linejoin: miter; stroke-miterlimit: 4; is-custom-font: none; font-file-url: none; fill: rgb(0,0,0); fill-rule: nonzero; opacity: 1; white-space: pre;" d="M-33.04-11.27L-32.29-2.89L-33.85-2.89L-33.98-5.43L-34.27-8.65L-34.40-8.65L-36.28-3.78L-37.64-3.78L-39.34-8.65L-39.46-8.65L-39.79-5.60L-39.97-2.89L-41.45-2.89L-40.61-11.27L-38.58-11.27L-38.24-10.03L-36.91-6.07L-36.80-6.07L-35.41-10.03L-35.03-11.27L-33.04-11.27ZM-30.84-2.89L-30.75-5.39L-30.82-8.82L-29.11-8.96L-29.19-5.56L-29.11-2.89L-30.84-2.89ZM-29.93-11.90Q-29.53-11.90-29.30-11.67Q-29.07-11.43-29.07-11.02L-29.07-11.02Q-29.07-10.58-29.32-10.32Q-29.57-10.06-30.00-10.06L-30.00-10.06Q-30.43-10.06-30.65-10.29Q-30.88-10.52-30.88-10.95L-30.88-10.95Q-30.88-11.38-30.63-11.64Q-30.37-11.90-29.93-11.90L-29.93-11.90ZM-24.99-9.06Q-24.56-9.06-24.14-8.97Q-23.72-8.89-23.39-8.73L-23.39-8.73L-23.68-7.35L-23.82-7.29Q-24.49-7.65-25.01-7.65L-25.01-7.65Q-25.60-7.65-25.93-7.22Q-26.25-6.79-26.25-6.00L-26.25-6.00Q-26.25-5.09-25.90-4.61Q-25.55-4.13-24.90-4.13L-24.90-4.13Q-24.32-4.13-23.60-4.45L-23.60-4.45L-23.47-4.35L-23.64-3.01Q-24.42-2.76-25.24-2.76L-25.24-2.76Q-26.49-2.76-27.19-3.58Q-27.89-4.39-27.89-5.84L-27.89-5.84Q-27.89-7.35-27.12-8.20Q-26.36-9.06-24.99-9.06L-24.99-9.06ZM-19.19-8.95Q-19.08-8.95-18.87-8.93L-18.87-8.93L-18.87-7.33L-19.05-7.26Q-19.27-7.35-19.53-7.35L-19.53-7.35Q-20.29-7.35-20.90-6.38L-20.90-6.38L-20.90-5.56L-20.81-2.89L-22.54-2.89L-22.43-5.39L-22.51-8.82L-20.87-8.96L-20.88-7.78L-20.78-7.78Q-20.14-8.95-19.19-8.95L-19.19-8.95ZM-15.50-9.06Q-14.18-9.06-13.47-8.28Q-12.77-7.50-12.77-6.03L-12.77-6.03Q-12.77-4.44-13.53-3.60Q-14.28-2.76-15.70-2.76L-15.70-2.76Q-17.02-2.76-17.73-3.54Q-18.43-4.32-18.43-5.79L-18.43-5.79Q-18.43-7.38-17.67-8.22Q-16.92-9.06-15.50-9.06L-15.50-9.06ZM-15.62-7.89Q-16.24-7.89-16.52-7.47Q-16.80-7.05-16.80-6.13L-16.80-6.13Q-16.80-4.93-16.52-4.43Q-16.23-3.92-15.58-3.92L-15.58-3.92Q-14.96-3.92-14.68-4.33Q-14.40-4.74-14.40-5.68L-14.40-5.68Q-14.40-6.86-14.69-7.37Q-14.98-7.89-15.62-7.89L-15.62-7.89ZM-9.56-9.04Q-8.68-9.04-7.90-8.74L-7.90-8.74L-8.13-7.47L-8.34-7.40Q-8.72-7.65-9.09-7.78Q-9.47-7.91-9.76-7.91L-9.76-7.91Q-10.07-7.91-10.25-7.75Q-10.43-7.59-10.43-7.35L-10.43-7.35Q-10.43-7.08-10.19-6.91Q-9.95-6.74-9.43-6.53L-9.43-6.53Q-8.91-6.33-8.57-6.13Q-8.24-5.94-7.99-5.59Q-7.75-5.25-7.75-4.74L-7.75-4.74Q-7.75-4.22-8.02-3.77Q-8.29-3.32-8.83-3.04Q-9.38-2.76-10.17-2.76L-10.17-2.76Q-11.11-2.76-12.11-3.15L-12.11-3.15L-11.91-4.51L-11.75-4.61Q-11.34-4.27-10.85-4.07Q-10.35-3.87-9.98-3.87L-9.98-3.87Q-9.63-3.87-9.43-4.04Q-9.24-4.22-9.24-4.47L-9.24-4.47Q-9.24-4.74-9.48-4.91Q-9.72-5.08-10.24-5.29L-10.24-5.29Q-10.77-5.52-11.11-5.71Q-11.45-5.90-11.69-6.25Q-11.93-6.60-11.93-7.12L-11.93-7.12Q-11.93-7.96-11.29-8.50Q-10.65-9.04-9.56-9.04L-9.56-9.04ZM-4.09-9.06Q-2.76-9.06-2.06-8.28Q-1.36-7.50-1.36-6.03L-1.36-6.03Q-1.36-4.44-2.11-3.60Q-2.87-2.76-4.28-2.76L-4.28-2.76Q-5.61-2.76-6.31-3.54Q-7.01-4.32-7.01-5.79L-7.01-5.79Q-7.01-7.38-6.26-8.22Q-5.51-9.06-4.09-9.06L-4.09-9.06ZM-4.21-7.89Q-4.83-7.89-5.11-7.47Q-5.39-7.05-5.39-6.13L-5.39-6.13Q-5.39-4.93-5.10-4.43Q-4.82-3.92-4.17-3.92L-4.17-3.92Q-3.54-3.92-3.26-4.33Q-2.98-4.74-2.98-5.68L-2.98-5.68Q-2.98-6.86-3.28-7.37Q-3.57-7.89-4.21-7.89L-4.21-7.89ZM2.71-12.05Q3.24-12.05 3.84-11.93L3.84-11.93L3.72-10.64L3.61-10.56Q3.00-10.82 2.54-10.82L2.54-10.82Q1.74-10.82 1.72-9.90L1.72-9.90L1.71-8.89L3.18-8.89L3.23-8.80L3.15-7.85L1.68-7.85L1.64-5.56L1.74-2.89L0.01-2.89L0.11-5.40L0.08-7.85L-0.83-7.85L-0.89-7.94L-0.80-8.89L0.07-8.89L0.06-9.60Q0.06-10.77 0.75-11.41Q1.45-12.05 2.71-12.05L2.71-12.05ZM6.29-4.17Q6.70-4.17 7.16-4.39L7.16-4.39L7.30-4.26L7.13-3.23Q6.47-2.89 5.78-2.82L5.78-2.82Q4.02-3.00 4.02-4.53L4.02-4.53L4.09-5.61L4.08-7.85L3.27-7.85L3.20-7.94L3.30-8.89L4.06-8.89L4.06-9.89L5.64-10.39L5.75-10.29L5.71-8.89L7.26-8.89L7.31-8.80L7.23-7.85L5.69-7.85L5.61-4.93Q5.61-4.52 5.77-4.34Q5.92-4.17 6.29-4.17L6.29-4.17ZM13.63-11.28Q14.94-11.28 15.65-10.62Q16.36-9.95 16.36-8.72L16.36-8.72Q16.36-7.77 15.94-7.06Q15.53-6.35 14.76-5.96Q13.98-5.57 12.94-5.57L12.94-5.57L12.11-5.57L12.11-5.55L12.19-2.89L10.42-2.89L10.51-5.39L10.42-11.27L13.63-11.28ZM13.33-6.86Q14.53-7.20 14.53-8.56L14.53-8.56Q14.53-9.26 14.17-9.61Q13.81-9.95 13.07-9.98L13.07-9.98L12.19-9.93L12.14-6.91L13.33-6.86ZM19.49-9.06Q20.82-9.06 21.52-8.28Q22.22-7.50 22.22-6.03L22.22-6.03Q22.22-4.44 21.47-3.60Q20.72-2.76 19.30-2.76L19.30-2.76Q17.97-2.76 17.27-3.54Q16.57-4.32 16.57-5.79L16.57-5.79Q16.57-7.38 17.32-8.22Q18.08-9.06 19.49-9.06L19.49-9.06ZM19.38-7.89Q18.75-7.89 18.47-7.47Q18.19-7.05 18.19-6.13L18.19-6.13Q18.19-4.93 18.48-4.43Q18.77-3.92 19.42-3.92L19.42-3.92Q20.04-3.92 20.32-4.33Q20.60-4.74 20.60-5.68L20.60-5.68Q20.60-6.86 20.31-7.37Q20.01-7.89 19.38-7.89L19.38-7.89ZM24.20-8.98L24.34-8.03L25.08-4.64L25.19-4.64L26.10-7.94L26.31-8.94L27.98-8.94L28.11-8.03L28.88-4.65L28.98-4.65L29.87-7.94L30.08-8.94L31.53-8.94L29.65-2.89L28.02-2.89L27.10-6.78L26.98-6.78L25.90-2.89L24.20-2.89L22.63-8.90L24.20-8.98ZM37.04-5.91L36.85-5.70L33.34-5.68Q33.46-4.05 34.99-4.05L34.99-4.05Q35.80-4.05 36.78-4.51L36.78-4.51L36.93-4.41L36.67-3.13Q35.68-2.76 34.81-2.76L34.81-2.76Q33.38-2.76 32.57-3.60Q31.75-4.43 31.75-5.90L31.75-5.90Q31.75-7.35 32.55-8.20Q33.34-9.06 34.69-9.06L34.69-9.06Q35.85-9.06 36.48-8.43Q37.11-7.79 37.11-6.66L37.11-6.66Q37.11-6.36 37.04-5.91L37.04-5.91ZM35.57-6.68L35.60-6.86Q35.60-7.38 35.37-7.65Q35.13-7.91 34.68-7.91L34.68-7.91Q34.17-7.91 33.83-7.58Q33.49-7.25 33.38-6.62L33.38-6.62L35.57-6.68ZM41.65-8.95Q41.76-8.95 41.97-8.93L41.97-8.93L41.97-7.33L41.79-7.26Q41.57-7.35 41.31-7.35L41.31-7.35Q40.55-7.35 39.94-6.38L39.94-6.38L39.94-5.56L40.03-2.89L38.30-2.89L38.41-5.39L38.33-8.82L39.97-8.96L39.96-7.78L40.06-7.78Q40.70-8.95 41.65-8.95L41.65-8.95Z"/><path xml:space="preserve" font-family="Alegreya Sans" font-size="13" font-weight="bold" style="stroke: none; stroke-width: 0; stroke-dasharray: none; stroke-linecap: butt; stroke-dashoffset: 0; stroke-linejoin: miter; stroke-miterlimit: 4; is-custom-font: none; font-file-url: none; fill: rgb(0,0,0); fill-rule: nonzero; opacity: 1; white-space: pre;" d="M-21.05 2.69L-18.49 11.06L-20.28 11.06L-20.49 9.97L-20.71 9.19L-22.35 9.15L-23.79 9.19L-24.01 9.88L-24.23 11.06L-25.97 11.06L-23.14 2.69L-21.05 2.69ZM-22.22 7.85L-21.09 7.82L-22.07 4.34L-22.19 4.34L-23.34 7.82L-22.22 7.85ZM-12.09 9.83L-11.97 9.93L-12.13 10.84Q-12.61 11.15-13.12 11.17L-13.12 11.17Q-13.49 11.10-13.74 10.87Q-13.99 10.63-14.12 10.19L-14.12 10.19L-14.23 10.19Q-14.98 10.92-15.77 11.14L-15.77 11.14Q-16.76 11.14-17.27 10.69Q-17.78 10.24-17.77 9.40L-17.77 9.40L-17.75 7.86L-17.81 5.13L-16.13 4.99L-16.17 8.83Q-16.18 9.28-15.99 9.51Q-15.79 9.75-15.40 9.75L-15.40 9.75Q-14.83 9.75-14.27 9.24L-14.27 9.24L-14.27 5.13L-12.62 4.99L-12.74 9.49Q-12.74 9.70-12.67 9.79Q-12.60 9.88-12.44 9.88L-12.44 9.88Q-12.30 9.88-12.09 9.83L-12.09 9.83ZM-8.51 9.79Q-8.10 9.79-7.64 9.57L-7.64 9.57L-7.50 9.70L-7.67 10.72Q-8.33 11.06-9.02 11.14L-9.02 11.14Q-10.78 10.96-10.78 9.42L-10.78 9.42L-10.71 8.34L-10.72 6.11L-11.53 6.11L-11.60 6.02L-11.50 5.07L-10.74 5.07L-10.74 4.07L-9.16 3.56L-9.05 3.66L-9.09 5.07L-7.54 5.07L-7.49 5.16L-7.57 6.11L-9.11 6.11L-9.19 9.02Q-9.19 9.44-9.03 9.61Q-8.88 9.79-8.51 9.79L-8.51 9.79ZM-4.15 4.90Q-2.82 4.90-2.12 5.68Q-1.42 6.46-1.42 7.93L-1.42 7.93Q-1.42 9.51-2.17 10.35Q-2.92 11.19-4.34 11.19L-4.34 11.19Q-5.67 11.19-6.37 10.41Q-7.07 9.63-7.07 8.16L-7.07 8.16Q-7.07 6.58-6.32 5.74Q-5.56 4.90-4.15 4.90L-4.15 4.90ZM-4.26 6.07Q-4.89 6.07-5.17 6.49Q-5.45 6.90-5.45 7.82L-5.45 7.82Q-5.45 9.02-5.16 9.53Q-4.87 10.03-4.22 10.03L-4.22 10.03Q-3.60 10.03-3.32 9.63Q-3.04 9.22-3.04 8.28L-3.04 8.28Q-3.04 7.10-3.33 6.58Q-3.63 6.07-4.26 6.07L-4.26 6.07ZM8.66 11.06L6.93 11.06L7.03 7.29Q7.03 6.33 6.21 6.33L6.21 6.33Q5.63 6.33 4.99 6.85L4.99 6.85L4.95 8.41L5.03 11.06L3.30 11.06L3.41 7.29Q3.42 6.82 3.20 6.58Q2.99 6.33 2.59 6.33L2.59 6.33Q2.02 6.33 1.33 6.88L1.33 6.88L1.33 8.40L1.40 11.06L-0.31 11.06L-0.22 8.57L-0.29 5.13L1.34 4.99L1.34 5.87L1.43 5.87Q2.15 5.22 3.00 4.94L3.00 4.94Q4.46 4.94 4.86 5.91L4.86 5.91L4.94 5.91Q5.68 5.22 6.63 4.94L6.63 4.94Q7.62 4.94 8.13 5.39Q8.65 5.84 8.62 6.68L8.62 6.68L8.58 8.41L8.66 11.06ZM12.56 4.90Q13.56 4.90 14.12 5.35Q14.69 5.80 14.69 6.60L14.69 6.60Q14.69 6.84 14.61 8.08L14.61 8.08Q14.60 8.45 14.57 8.83Q14.55 9.22 14.55 9.49L14.55 9.49Q14.55 9.71 14.61 9.79Q14.68 9.88 14.85 9.88L14.85 9.88Q14.98 9.88 15.18 9.83L15.18 9.83L15.31 9.93L15.16 10.84Q14.74 11.11 14.21 11.17L14.21 11.17Q13.82 11.13 13.56 10.89Q13.30 10.65 13.21 10.22L13.21 10.22L13.12 10.22Q12.47 10.91 11.78 11.18L11.78 11.18Q10.84 11.17 10.31 10.68Q9.78 10.20 9.78 9.37L9.78 9.37Q9.78 8.72 10.11 8.35Q10.44 7.98 11.12 7.85L11.12 7.85L13.10 7.47L13.10 6.94Q13.10 6.10 12.27 6.10L12.27 6.10Q11.87 6.10 11.42 6.28Q10.97 6.46 10.41 6.85L10.41 6.85L10.28 6.77L10.09 5.63Q10.65 5.28 11.28 5.09Q11.92 4.90 12.56 4.90L12.56 4.90ZM13.09 8.34L11.71 8.64Q11.51 8.70 11.41 8.82Q11.31 8.94 11.31 9.19L11.31 9.19Q11.31 9.53 11.49 9.72Q11.67 9.90 12.00 9.90L12.00 9.90Q12.51 9.90 13.07 9.31L13.07 9.31L13.09 8.34ZM18.88 9.79Q19.29 9.79 19.75 9.57L19.75 9.57L19.89 9.70L19.72 10.72Q19.06 11.06 18.37 11.14L18.37 11.14Q16.61 10.96 16.61 9.42L16.61 9.42L16.68 8.34L16.67 6.11L15.86 6.11L15.80 6.02L15.89 5.07L16.65 5.07L16.65 4.07L18.23 3.56L18.34 3.66L18.30 5.07L19.85 5.07L19.90 5.16L19.83 6.11L18.28 6.11L18.20 9.02Q18.20 9.44 18.36 9.61Q18.51 9.79 18.88 9.79L18.88 9.79ZM25.61 8.05L25.41 8.25L21.91 8.28Q22.02 9.90 23.56 9.90L23.56 9.90Q24.36 9.90 25.35 9.45L25.35 9.45L25.49 9.54L25.23 10.83Q24.25 11.19 23.37 11.19L23.37 11.19Q21.94 11.19 21.13 10.36Q20.32 9.53 20.32 8.06L20.32 8.06Q20.32 6.60 21.11 5.75Q21.91 4.90 23.26 4.90L23.26 4.90Q24.41 4.90 25.04 5.53Q25.68 6.16 25.68 7.29L25.68 7.29Q25.68 7.59 25.61 8.05L25.61 8.05ZM24.14 7.28L24.17 7.10Q24.17 6.58 23.93 6.31Q23.70 6.04 23.24 6.04L23.24 6.04Q22.74 6.04 22.40 6.38Q22.06 6.71 21.94 7.33L21.94 7.33L24.14 7.28Z"/></g>
<g transform="matrix(1 0 0 1 322.8388 109.8321)" style="" id="356397">
		
<path xml:space="preserve" font-family="Alegreya Sans" font-size="12" font-style="normal" font-weight="bold" style="stroke: none; stroke-width: 0; stroke-dasharray: none; stroke-linecap: butt; stroke-dashoffset: 0; stroke-linejoin: miter; stroke-miterlimit: 4; is-custom-font: none; font-file-url: none; fill: rgb(0,0,0); fill-rule: nonzero; opacity: 1; white-space: pre;" d="M-18.89-3.97Q-17.68-3.97-17.02-3.36Q-16.37-2.75-16.37-1.61L-16.37-1.61Q-16.37-0.73-16.75-0.08Q-17.14 0.58-17.85 0.94Q-18.56 1.30-19.52 1.30L-19.52 1.30L-20.29 1.30L-20.29 1.32L-20.22 3.77L-21.85 3.77L-21.77 1.47L-21.85-3.96L-18.89-3.97ZM-19.16 0.11Q-18.06-0.20-18.06-1.46L-18.06-1.46Q-18.06-2.11-18.39-2.43Q-18.72-2.75-19.40-2.77L-19.40-2.77L-20.22-2.72L-20.27 0.06L-19.16 0.11ZM-11.16 0.70Q-10.22 2.19-9.30 3.39L-9.30 3.39L-9.32 3.57Q-10.10 3.84-10.92 3.89L-10.92 3.89L-11.09 3.76Q-11.95 2.27-12.49 1.17L-12.49 1.17L-13.66 1.17L-13.66 1.32L-13.58 3.77L-15.22 3.77L-15.13 1.47L-15.22-3.96L-12.25-3.97Q-11.04-3.97-10.38-3.38Q-9.72-2.78-9.72-1.68L-9.72-1.68Q-9.72-0.93-10.10-0.32Q-10.48 0.30-11.16 0.70L-11.16 0.70ZM-13.58-2.72L-13.63-0.09L-12.44-0.05Q-11.42-0.39-11.42-1.52L-11.42-1.52Q-11.42-2.13-11.75-2.44Q-12.08-2.75-12.77-2.77L-12.77-2.77L-13.58-2.72ZM-5.20-4.07Q-3.56-4.07-2.68-3.08Q-1.80-2.09-1.80-0.26L-1.80-0.26Q-1.80 1.73-2.76 2.81Q-3.72 3.89-5.47 3.89L-5.47 3.89Q-7.09 3.89-7.97 2.88Q-8.86 1.86-8.86 0.00L-8.86 0.00Q-8.86-1.95-7.90-3.01Q-6.95-4.07-5.20-4.07L-5.20-4.07ZM-5.34-2.76Q-6.30-2.76-6.73-2.16Q-7.16-1.56-7.16-0.20L-7.16-0.20Q-7.16 1.35-6.74 2.01Q-6.31 2.67-5.33 2.67L-5.33 2.67Q-4.37 2.67-3.94 2.06Q-3.50 1.45-3.50 0.07L-3.50 0.07Q-3.50-1.45-3.93-2.10Q-4.36-2.76-5.34-2.76L-5.34-2.76ZM2.56-4.05Q3.68-4.05 4.58-3.59L4.58-3.59L4.30-2.23L4.16-2.17Q3.80-2.42 3.37-2.57Q2.94-2.71 2.48-2.71L2.48-2.71Q0.58-2.71 0.58-0.20L0.58-0.20Q0.58 1.15 1.07 1.83Q1.57 2.51 2.53 2.51L2.53 2.51Q2.98 2.51 3.45 2.37Q3.92 2.23 4.31 1.99L4.31 1.99L4.45 2.08L4.32 3.46Q3.41 3.88 2.40 3.88L2.40 3.88Q0.67 3.88-0.23 2.87Q-1.14 1.86-1.14-0.02L-1.14-0.02Q-1.14-1.94-0.17-3.00Q0.79-4.05 2.56-4.05L2.56-4.05ZM8.62 2.50L10.52 2.43L10.62 2.56L10.51 3.77L5.66 3.77L5.75 1.47L5.66-3.96L10.56-3.96L10.66-3.83L10.54-2.61L8.69-2.67L7.30-2.66L7.26-0.80L8.59-0.78L9.85-0.81L9.95-0.69L9.84 0.52L8.47 0.48L7.24 0.49L7.22 1.32L7.26 2.49L8.62 2.50ZM14.26-4.05Q15.24-4.05 16.21-3.66L16.21-3.66L15.95-2.25L15.71-2.16Q15.30-2.45 14.86-2.61Q14.42-2.78 14.06-2.78L14.06-2.78Q13.58-2.78 13.30-2.52Q13.01-2.27 13.01-1.93L13.01-1.93Q13.01-1.58 13.33-1.34Q13.64-1.10 14.33-0.78L14.33-0.78Q14.99-0.48 15.40-0.22Q15.82 0.04 16.11 0.46Q16.40 0.88 16.40 1.49L16.40 1.49Q16.40 2.15 16.04 2.70Q15.68 3.24 15.02 3.56Q14.36 3.88 13.50 3.88L13.50 3.88Q12.36 3.88 11.21 3.39L11.21 3.39L11.44 1.87L11.62 1.78Q12.10 2.20 12.67 2.42Q13.24 2.64 13.68 2.64L13.68 2.64Q14.21 2.64 14.50 2.38Q14.80 2.13 14.80 1.77L14.80 1.77Q14.80 1.38 14.48 1.14Q14.16 0.90 13.45 0.57L13.45 0.57Q12.80 0.28 12.40 0.03Q11.99-0.23 11.70-0.65Q11.41-1.07 11.41-1.67L11.41-1.67Q11.41-2.34 11.77-2.88Q12.13-3.43 12.78-3.74Q13.43-4.05 14.26-4.05L14.26-4.05ZM20.23-4.05Q21.22-4.05 22.19-3.66L22.19-3.66L21.92-2.25L21.68-2.16Q21.28-2.45 20.84-2.61Q20.40-2.78 20.04-2.78L20.04-2.78Q19.56-2.78 19.27-2.52Q18.98-2.27 18.98-1.93L18.98-1.93Q18.98-1.58 19.30-1.34Q19.62-1.10 20.30-0.78L20.30-0.78Q20.96-0.48 21.38-0.22Q21.79 0.04 22.09 0.46Q22.38 0.88 22.38 1.49L22.38 1.49Q22.38 2.15 22.02 2.70Q21.66 3.24 21 3.56Q20.34 3.88 19.48 3.88L19.48 3.88Q18.34 3.88 17.18 3.39L17.18 3.39L17.41 1.87L17.59 1.78Q18.07 2.20 18.64 2.42Q19.21 2.64 19.66 2.64L19.66 2.64Q20.18 2.64 20.48 2.38Q20.77 2.13 20.77 1.77L20.77 1.77Q20.77 1.38 20.45 1.14Q20.14 0.90 19.43 0.57L19.43 0.57Q18.78 0.28 18.37 0.03Q17.96-0.23 17.68-0.65Q17.39-1.07 17.39-1.67L17.39-1.67Q17.39-2.34 17.75-2.88Q18.11-3.43 18.76-3.74Q19.40-4.05 20.23-4.05L20.23-4.05Z"/></g>
<g transform="matrix(0.695 0 0 0.695 325.0064 93.0109)" id="851540">
<path style="stroke: none; stroke-width: 0; stroke-dasharray: none; stroke-linecap: butt; stroke-dashoffset: 0; stroke-linejoin: miter; stroke-miterlimit: 4; is-custom-font: none; font-file-url: none; fill: rgb(0,0,0); fill-rule: nonzero; opacity: 1;" vector-effect="non-scaling-stroke" transform=" translate(-45.2375, -10.7)" d="M 79.4 0 C 76.8 0 75.6 3.19999 77.5 4.89999 L 79.9 7 H 3.7 C 1.7 7 0 8.60001 0 10.7 C 0 12.7 1.6 14.4 3.7 14.4 H 79.9 L 77.5 16.5 C 75.6 18.2 76.8 21.4 79.4 21.4 L 89.5 12.8 C 90.8 11.7 90.8 9.6 89.5 8.5 L 79.4 0 Z" stroke-linecap="round"/>
</g>
<g transform="matrix(0 0.2687 -0.2687 0 244.1435 140.8018)" id="149017">
<path style="stroke: none; stroke-width: 0; stroke-dasharray: none; stroke-linecap: butt; stroke-dashoffset: 0; stroke-linejoin: miter; stroke-miterlimit: 4; is-custom-font: none; font-file-url: none; fill: rgb(0,0,0); fill-rule: nonzero; opacity: 1;" vector-effect="non-scaling-stroke" transform=" translate(-45.2375, -10.7)" d="M 79.4 0 C 76.8 0 75.6 3.19999 77.5 4.89999 L 79.9 7 H 3.7 C 1.7 7 0 8.60001 0 10.7 C 0 12.7 1.6 14.4 3.7 14.4 H 79.9 L 77.5 16.5 C 75.6 18.2 76.8 21.4 79.4 21.4 L 89.5 12.8 C 90.8 11.7 90.8 9.6 89.5 8.5 L 79.4 0 Z" stroke-linecap="round"/>
</g>
<g transform="matrix(1 0 0 1 222.5055 140.8008)" style="" id="532509">
		
<path xml:space="preserve" font-family="Alegreya Sans" font-size="12" font-style="normal" font-weight="bold" style="stroke: none; stroke-width: 0; stroke-dasharray: none; stroke-linecap: butt; stroke-dashoffset: 0; stroke-linejoin: miter; stroke-miterlimit: 4; is-custom-font: none; font-file-url: none; fill: rgb(0,0,0); fill-rule: nonzero; opacity: 1; white-space: pre;" d="M-10.42-4.05Q-9.43-4.05-8.46-3.66L-8.46-3.66L-8.72-2.25L-8.96-2.16Q-9.37-2.45-9.81-2.61Q-10.25-2.78-10.61-2.78L-10.61-2.78Q-11.09-2.78-11.38-2.52Q-11.66-2.27-11.66-1.93L-11.66-1.93Q-11.66-1.58-11.35-1.34Q-11.03-1.10-10.34-0.78L-10.34-0.78Q-9.68-0.48-9.27-0.22Q-8.86 0.04-8.56 0.46Q-8.27 0.88-8.27 1.49L-8.27 1.49Q-8.27 2.15-8.63 2.70Q-8.99 3.24-9.65 3.56Q-10.31 3.88-11.17 3.88L-11.17 3.88Q-12.31 3.88-13.46 3.39L-13.46 3.39L-13.24 1.87L-13.06 1.78Q-12.58 2.20-12.01 2.42Q-11.44 2.64-10.99 2.64L-10.99 2.64Q-10.46 2.64-10.17 2.38Q-9.88 2.13-9.88 1.77L-9.88 1.77Q-9.88 1.38-10.19 1.14Q-10.51 0.90-11.22 0.57L-11.22 0.57Q-11.87 0.28-12.28 0.03Q-12.68-0.23-12.97-0.65Q-13.26-1.07-13.26-1.67L-13.26-1.67Q-13.26-2.34-12.90-2.88Q-12.54-3.43-11.89-3.74Q-11.24-4.05-10.42-4.05L-10.42-4.05ZM-3.83-4.05Q-2.70-4.05-1.80-3.59L-1.80-3.59L-2.09-2.23L-2.22-2.17Q-2.58-2.42-3.01-2.57Q-3.44-2.71-3.90-2.71L-3.90-2.71Q-5.81-2.71-5.81-0.20L-5.81-0.20Q-5.81 1.15-5.31 1.83Q-4.81 2.51-3.85 2.51L-3.85 2.51Q-3.41 2.51-2.93 2.37Q-2.46 2.23-2.08 1.99L-2.08 1.99L-1.93 2.08L-2.06 3.46Q-2.98 3.88-3.98 3.88L-3.98 3.88Q-5.71 3.88-6.62 2.87Q-7.52 1.86-7.52-0.02L-7.52-0.02Q-7.52-1.94-6.56-3.00Q-5.59-4.05-3.83-4.05L-3.83-4.05ZM2.94-3.96L5.30 3.77L3.65 3.77L3.46 2.76L3.25 2.04L1.74 2.01L0.41 2.04L0.20 2.68L-0.00 3.77L-1.61 3.77L1.01-3.96L2.94-3.96ZM1.86 0.81L2.90 0.78L1.99-2.43L1.88-2.43L0.83 0.78L1.86 0.81ZM12.91-3.98L12.82 1.38L12.88 3.77L11.12 3.77L7.97-1.46L7.87-1.46L7.86 1.11L7.91 3.77L6.43 3.77L6.52 1.49L6.44-3.96L8.18-3.96L11.34 1.27L11.45 1.27L11.41-3.89L12.91-3.98Z"/></g>
<g transform="matrix(1 0 0 1 303.2666 140.8008)" style="" id="953242">
		
<path xml:space="preserve" font-family="Alegreya Sans" font-size="12" font-style="normal" font-weight="bold" style="stroke: none; stroke-width: 0; stroke-dasharray: none; stroke-linecap: butt; stroke-dashoffset: 0; stroke-linejoin: miter; stroke-miterlimit: 4; is-custom-font: none; font-file-url: none; fill: rgb(0,0,0); fill-rule: nonzero; opacity: 1; white-space: pre;" d="M-25.67 4.92L-25.61 5.09Q-25.93 5.73-26.36 6.13L-26.36 6.13L-26.50 6.18Q-28.73 5.35-30.44 3.89L-30.44 3.89L-30.70 3.89Q-32.33 3.89-33.22 2.88Q-34.10 1.86-34.10 0.00L-34.10 0.00Q-34.10-1.95-33.15-3.01Q-32.20-4.07-30.44-4.07L-30.44-4.07Q-28.81-4.07-27.93-3.08Q-27.05-2.09-27.05-0.24L-27.05-0.24Q-27.05 1.15-27.55 2.13Q-28.06 3.10-28.99 3.54L-28.99 3.54Q-27.42 4.50-25.67 4.92L-25.67 4.92ZM-32.41-0.18Q-32.41 1.33-31.98 1.98Q-31.55 2.63-30.56 2.63L-30.56 2.63Q-29.63 2.63-29.19 2.02Q-28.75 1.41-28.75 0.04L-28.75 0.04Q-28.75-1.46-29.18-2.10Q-29.62-2.75-30.60-2.75L-30.60-2.75Q-31.56-2.75-31.99-2.15Q-32.41-1.55-32.41-0.18L-32.41-0.18ZM-19.72-3.96L-19.78-0.03L-19.79 0.99Q-19.78 2.37-20.59 3.12Q-21.41 3.88-22.93 3.88L-22.93 3.88Q-24.40 3.88-25.16 3.15Q-25.93 2.41-25.90 1.05L-25.90 1.05L-25.88-0.07L-25.92-3.96L-24.29-3.96L-24.37 0.83Q-24.38 1.71-24.00 2.13Q-23.62 2.55-22.84 2.55L-22.84 2.55Q-21.28 2.55-21.29 0.91L-21.29 0.91L-21.37-3.96L-19.72-3.96ZM-14.63-3.96L-12.26 3.77L-13.92 3.77L-14.11 2.76L-14.32 2.04L-15.83 2.01L-17.16 2.04L-17.36 2.68L-17.57 3.77L-19.18 3.77L-16.56-3.96L-14.63-3.96ZM-15.71 0.81L-14.66 0.78L-15.58-2.43L-15.68-2.43L-16.74 0.78L-15.71 0.81ZM-7.08 0.70Q-6.14 2.19-5.22 3.39L-5.22 3.39L-5.24 3.57Q-6.02 3.84-6.84 3.89L-6.84 3.89L-7.01 3.76Q-7.87 2.27-8.41 1.17L-8.41 1.17L-9.58 1.17L-9.58 1.32L-9.50 3.77L-11.14 3.77L-11.05 1.47L-11.14-3.96L-8.17-3.97Q-6.96-3.97-6.30-3.38Q-5.64-2.78-5.64-1.68L-5.64-1.68Q-5.64-0.93-6.02-0.32Q-6.40 0.30-7.08 0.70L-7.08 0.70ZM-9.50-2.72L-9.55-0.09L-8.36-0.05Q-7.34-0.39-7.34-1.52L-7.34-1.52Q-7.34-2.13-7.67-2.44Q-8.00-2.75-8.69-2.77L-8.69-2.77L-9.50-2.72ZM-0.35-3.96L2.02 3.77L0.36 3.77L0.17 2.76L-0.04 2.04L-1.55 2.01L-2.88 2.04L-3.08 2.68L-3.29 3.77L-4.90 3.77L-2.28-3.96L-0.35-3.96ZM-1.43 0.81L-0.38 0.78L-1.30-2.43L-1.40-2.43L-2.46 0.78L-1.43 0.81ZM9.62-3.98L9.53 1.38L9.59 3.77L7.84 3.77L4.68-1.46L4.58-1.46L4.57 1.11L4.62 3.77L3.14 3.77L3.23 1.49L3.16-3.96L4.90-3.96L8.05 1.27L8.16 1.27L8.12-3.89L9.62-3.98ZM16.24-3.96L16.33-3.83L16.24-2.61L14.78-2.69L14.30-2.69L14.24 1.32L14.32 3.77L12.68 3.77L12.77 1.47L12.71-2.69L12.23-2.69L10.75-2.61L10.64-2.75L10.75-3.96L16.24-3.96ZM19.04-3.96L18.95 1.32L19.02 3.77L17.39 3.77L17.47 1.47L17.39-3.96L19.04-3.96ZM27.41-3.98L27.31 1.38L27.37 3.77L25.62 3.77L22.46-1.46L22.37-1.46L22.36 1.11L22.40 3.77L20.93 3.77L21.01 1.49L20.94-3.96L22.68-3.96L25.84 1.27L25.94 1.27L25.91-3.89L27.41-3.98ZM32.22 2.50L34.13 2.43L34.22 2.56L34.12 3.77L29.27 3.77L29.35 1.47L29.27-3.96L34.16-3.96L34.26-3.83L34.14-2.61L32.29-2.67L30.90-2.66L30.86-0.80L32.20-0.78L33.46-0.81L33.55-0.69L33.44 0.52L32.08 0.48L30.84 0.49L30.83 1.32L30.86 2.49L32.22 2.50Z"/></g>
<g transform="matrix(5.081 0 0 4.1692 249.3455 193.6869)" id="558644">
<path style="stroke: none; stroke-width: 1; stroke-dasharray: none; stroke-linecap: butt; stroke-dashoffset: 0; stroke-linejoin: miter; stroke-miterlimit: 4; is-custom-font: none; font-file-url: none; fill: rgb(33,155,217); fill-rule: evenodd; opacity: 1;" vector-effect="non-scaling-stroke" transform=" translate(-12, -8)" d="M 19.4 6 C 18.7 2.6 15.7 0 12 0 C 9.1 0 6.6 1.6 5.4 4 C 2.3 4.4 0 6.9 0 10 C 0 13.3 2.7 16 6 16 L 19 16 C 21.8 16 24 13.8 24 11 C 24 8.4 21.9 6.2 19.4 6 L 19.4 6 Z M 19 14 L 6 14 C 3.8 14 2 12.2 2 10 C 2 7.8 3.8 6 6 6 L 6.7 6 C 7.4 3.7 9.5 2 12 2 C 15 2 17.5 4.5 17.5 7.5 L 17.5 8 L 19 8 C 20.7 8 22 9.3 22 11 C 22 12.7 20.7 14 19 14 L 19 14 Z" stroke-linecap="round"/>
</g>
<g transform="matrix(0 -0.2687 0.2687 0 254.7714 141.8018)" id="522626">
<path style="stroke: none; stroke-width: 0; stroke-dasharray: none; stroke-linecap: butt; stroke-dashoffset: 0; stroke-linejoin: miter; stroke-miterlimit: 4; is-custom-font: none; font-file-url: none; fill: rgb(0,0,0); fill-rule: nonzero; opacity: 1;" vector-effect="non-scaling-stroke" transform=" translate(-45.2375, -10.7)" d="M 79.4 0 C 76.8 0 75.6 3.19999 77.5 4.89999 L 79.9 7 H 3.7 C 1.7 7 0 8.60001 0 10.7 C 0 12.7 1.6 14.4 3.7 14.4 H 79.9 L 77.5 16.5 C 75.6 18.2 76.8 21.4 79.4 21.4 L 89.5 12.8 C 90.8 11.7 90.8 9.6 89.5 8.5 L 79.4 0 Z" stroke-linecap="round"/>
</g>
<g transform="matrix(1 0 0 1 247.1435 202.7766)" style="" id="55615">
		
<path xml:space="preserve" font-family="Alegreya Sans" font-size="16" font-weight="bold" style="stroke: none; stroke-width: 0; stroke-dasharray: none; stroke-linecap: butt; stroke-dashoffset: 0; stroke-linejoin: miter; stroke-miterlimit: 4; is-custom-font: none; font-file-url: none; fill: rgb(33,155,217); fill-rule: nonzero; opacity: 1; white-space: pre;" d="M-28.94-5.41Q-27.62-5.41-26.33-4.88L-26.33-4.88L-26.68-3.01L-27.00-2.88Q-27.54-3.26-28.13-3.49Q-28.71-3.71-29.19-3.71L-29.19-3.71Q-29.83-3.71-30.22-3.37Q-30.60-3.02-30.60-2.57L-30.60-2.57Q-30.60-2.11-30.18-1.79Q-29.75-1.47-28.84-1.04L-28.84-1.04Q-27.96-0.64-27.41-0.29Q-26.86 0.05-26.46 0.61Q-26.07 1.17-26.07 1.99L-26.07 1.99Q-26.07 2.87-26.55 3.59Q-27.03 4.32-27.91 4.75Q-28.79 5.17-29.94 5.17L-29.94 5.17Q-31.46 5.17-33.00 4.51L-33.00 4.51L-32.70 2.50L-32.46 2.37Q-31.82 2.93-31.06 3.23Q-30.30 3.52-29.70 3.52L-29.70 3.52Q-29.00 3.52-28.61 3.18Q-28.22 2.83-28.22 2.35L-28.22 2.35Q-28.22 1.84-28.64 1.52Q-29.06 1.20-30.01 0.75L-30.01 0.75Q-30.87 0.37-31.42 0.03Q-31.96-0.30-32.34-0.86Q-32.73-1.42-32.73-2.22L-32.73-2.22Q-32.73-3.12-32.25-3.85Q-31.77-4.57-30.90-4.99Q-30.04-5.41-28.94-5.41L-28.94-5.41ZM-21.75-2.56Q-21.22-2.56-20.70-2.45Q-20.18-2.35-19.78-2.16L-19.78-2.16L-20.14-0.46L-20.31-0.38Q-21.13-0.83-21.77-0.83L-21.77-0.83Q-22.50-0.83-22.90-0.30Q-23.30 0.23-23.30 1.20L-23.30 1.20Q-23.30 2.32-22.87 2.91Q-22.44 3.51-21.64 3.51L-21.64 3.51Q-20.92 3.51-20.04 3.11L-20.04 3.11L-19.88 3.23L-20.09 4.88Q-21.05 5.19-22.06 5.19L-22.06 5.19Q-23.59 5.19-24.46 4.19Q-25.32 3.19-25.32 1.39L-25.32 1.39Q-25.32-0.46-24.38-1.51Q-23.43-2.56-21.75-2.56L-21.75-2.56ZM-15.88-2.56Q-14.65-2.56-13.95-2.01Q-13.26-1.45-13.26-0.46L-13.26-0.46Q-13.26-0.17-13.35 1.36L-13.35 1.36Q-13.37 1.81-13.40 2.28Q-13.43 2.75-13.43 3.09L-13.43 3.09Q-13.43 3.36-13.35 3.47Q-13.27 3.57-13.06 3.57L-13.06 3.57Q-12.90 3.57-12.65 3.51L-12.65 3.51L-12.49 3.63L-12.68 4.75Q-13.19 5.09-13.85 5.15L-13.85 5.15Q-14.33 5.11-14.65 4.81Q-14.97 4.51-15.08 3.99L-15.08 3.99L-15.19 3.99Q-15.99 4.83-16.84 5.17L-16.84 5.17Q-17.99 5.15-18.65 4.56Q-19.30 3.97-19.30 2.95L-19.30 2.95Q-19.30 2.15-18.90 1.69Q-18.49 1.23-17.66 1.07L-17.66 1.07L-15.21 0.61L-15.21-0.05Q-15.21-1.09-16.23-1.09L-16.23-1.09Q-16.73-1.09-17.28-0.86Q-17.83-0.64-18.52-0.16L-18.52-0.16L-18.68-0.25L-18.92-1.66Q-18.23-2.09-17.45-2.33Q-16.66-2.56-15.88-2.56L-15.88-2.56ZM-15.22 1.68L-16.92 2.05Q-17.18 2.11-17.30 2.27Q-17.42 2.42-17.42 2.72L-17.42 2.72Q-17.42 3.14-17.19 3.37Q-16.97 3.60-16.57 3.60L-16.57 3.60Q-15.94 3.60-15.26 2.87L-15.26 2.87L-15.22 1.68ZM-6.76 5.03L-6.63 0.39Q-6.62-0.17-6.88-0.49Q-7.14-0.80-7.64-0.80L-7.64-0.80Q-8.36-0.80-9.18-0.11L-9.18-0.11L-9.18 1.75L-9.08 5.03L-11.21 5.03L-11.10 1.95L-11.18-2.27L-9.16-2.45L-9.16-1.36L-9.05-1.36Q-8.17-2.16-7.13-2.51L-7.13-2.51Q-5.91-2.51-5.27-1.96Q-4.63-1.41-4.66-0.37L-4.66-0.37L-4.71 1.76L-4.62 5.03L-6.76 5.03ZM1.66-5.41Q3.16-5.41 4.36-4.78L4.36-4.78L3.98-2.97L3.80-2.89Q3.32-3.23 2.74-3.42Q2.17-3.61 1.56-3.61L1.56-3.61Q-0.98-3.61-0.98-0.27L-0.98-0.27Q-0.98 1.54-0.32 2.44Q0.34 3.35 1.62 3.35L1.62 3.35Q2.22 3.35 2.85 3.16Q3.48 2.98 3.99 2.66L3.99 2.66L4.18 2.77L4.01 4.61Q2.79 5.17 1.45 5.17L1.45 5.17Q-0.86 5.17-2.06 3.83Q-3.27 2.48-3.27-0.03L-3.27-0.03Q-3.27-2.59-1.98-4.00Q-0.70-5.41 1.66-5.41L1.66-5.41ZM7.80-6.21L7.67 1.75L7.78 5.03L5.66 5.03L5.77 1.94L5.67-6.05L7.80-6.21ZM12.89-2.56Q14.52-2.56 15.38-1.60Q16.25-0.64 16.25 1.17L16.25 1.17Q16.25 3.12 15.32 4.15Q14.39 5.19 12.65 5.19L12.65 5.19Q11.02 5.19 10.15 4.23Q9.29 3.27 9.29 1.46L9.29 1.46Q9.29-0.49 10.22-1.53Q11.14-2.56 12.89-2.56L12.89-2.56ZM12.74-1.12Q11.98-1.12 11.63-0.61Q11.29-0.09 11.29 1.04L11.29 1.04Q11.29 2.51 11.64 3.14Q11.99 3.76 12.79 3.76L12.79 3.76Q13.56 3.76 13.90 3.26Q14.25 2.75 14.25 1.60L14.25 1.60Q14.25 0.15 13.89-0.49Q13.53-1.12 12.74-1.12L12.74-1.12ZM24.66 3.51L24.81 3.63L24.62 4.75Q24.02 5.14 23.40 5.15L23.40 5.15Q22.94 5.07 22.63 4.79Q22.33 4.50 22.17 3.95L22.17 3.95L22.02 3.95Q21.11 4.85 20.14 5.12L20.14 5.12Q18.92 5.12 18.29 4.57Q17.66 4.02 17.67 2.98L17.67 2.98L17.70 1.09L17.62-2.27L19.69-2.45L19.64 2.27Q19.62 2.83 19.86 3.12Q20.10 3.41 20.58 3.41L20.58 3.41Q21.29 3.41 21.98 2.79L21.98 2.79L21.98-2.27L24.01-2.45L23.86 3.09Q23.86 3.35 23.95 3.46Q24.04 3.57 24.23 3.57L24.23 3.57Q24.41 3.57 24.66 3.51L24.66 3.51ZM32.39-6.21L32.26 1.75L32.31 3.09Q32.31 3.36 32.38 3.47Q32.46 3.57 32.65 3.57L32.65 3.57Q32.82 3.57 33.08 3.51L33.08 3.51L33.22 3.63L33.05 4.75Q32.50 5.09 31.86 5.15L31.86 5.15Q31.37 5.11 31.03 4.82Q30.70 4.53 30.57 4.03L30.57 4.03L30.44 4.03Q29.66 4.75 28.84 5.14L28.84 5.14Q27.27 5.14 26.41 4.14Q25.54 3.14 25.54 1.36L25.54 1.36Q25.54-0.53 26.54-1.53Q27.53-2.54 29.29-2.54L29.29-2.54Q29.75-2.54 30.31-2.45L30.31-2.45L30.28-6.05L32.39-6.21ZM29.14-1.10Q27.54-1.10 27.54 0.93L27.54 0.93Q27.54 2.19 27.93 2.83Q28.31 3.47 29.05 3.47L29.05 3.47Q29.75 3.47 30.34 2.82L30.34 2.82L30.38 1.94L30.33-0.81Q29.70-1.10 29.14-1.10L29.14-1.10Z"/></g>
</svg>